<svg width="274" height="276" viewBox="0 0 274 276" fill="none" xmlns="http://www.w3.org/2000/svg">
<path d="M108.016 160.705H97.1747V244.143H108.016V160.705Z" fill="#F0F0F0"/>
<path d="M2.28252 244.143H97.1747L97.1747 160.705H2.28252L2.28252 244.143Z" fill="#F5F5F5"/>
<path d="M1.42375 236.814H84.7351V192.188H1.42375V236.814Z" fill="#FAFAFA"/>
<path d="M1.42375 187.457H84.7351V172.764H1.42375V187.457Z" fill="#FAFAFA"/>
<path d="M109.283 159.564H97.1747V165.02H109.283V159.564Z" fill="#F0F0F0"/>
<path d="M1.01533 165.02H97.1747V159.564H1.01533V165.02Z" fill="#F5F5F5"/>
<path d="M270.429 144.872H241.699V244.143H270.429V144.872Z" fill="#E0E0E0"/>
<path d="M123.223 244.143H261.953L268.775 142.267H130.052L123.223 244.143Z" fill="#F0F0F0"/>
<path d="M131.72 238.194H254.251L260.277 148.216H137.746L131.72 238.194Z" fill="white"/>
<path d="M90.6698 156.502H88.1354V115.135C88.1372 114.799 88.2713 114.478 88.5086 114.241C88.7458 114.004 89.0671 113.869 89.4026 113.868C89.7381 113.869 90.0593 114.004 90.2966 114.241C90.5338 114.478 90.6679 114.799 90.6698 115.135V156.502Z" fill="#F5F5F5"/>
<path d="M97.2733 159.564H81.5319L82.3203 158.156C82.6382 157.59 83.1012 157.119 83.6617 156.791C84.2222 156.463 84.8601 156.29 85.5095 156.291H93.3027C93.9518 156.292 94.5891 156.465 95.1494 156.793C95.7096 157.12 96.1729 157.591 96.4919 158.156L97.2733 159.564Z" fill="#F0F0F0"/>
<path d="M77.3853 128.511C77.3853 128.511 77.688 116.691 89.4025 116.691C101.117 116.691 101.427 128.511 101.427 128.511H77.3853Z" fill="#E0E0E0"/>
<path d="M18.9251 100.492L260.292 100.492V29.0427L18.9251 29.0427V100.492Z" fill="#F0F0F0"/>
<path d="M13.6029 100.492H254.969L253.575 105.603H12.209L13.6029 100.492Z" fill="#F0F0F0"/>
<path d="M251.266 91.4663V38.0679L27.9504 38.0679V91.4663L251.266 91.4663Z" fill="#FAFAFA"/>
<path d="M219.002 91.4663L188.779 38.0679H159.922L190.145 91.4663H219.002Z" fill="white"/>
<path d="M183.943 91.4663L153.727 38.0679H142.477L172.693 91.4663H183.943Z" fill="white"/>
<path d="M137 275.935C212.386 275.935 273.499 272.367 273.499 267.966C273.499 263.565 212.386 259.997 137 259.997C61.614 259.997 0.501465 263.565 0.501465 267.966C0.501465 272.367 61.614 275.935 137 275.935Z" fill="#F5F5F5"/>
<path d="M100.117 258.568L105.418 256.611L101.356 244.115L96.0553 246.072L100.117 258.568Z" fill="#FFC3BD"/>
<path d="M104.517 252.788L98.7024 254.83C98.5997 254.865 98.5136 254.937 98.4604 255.032C98.4072 255.126 98.3906 255.237 98.4138 255.343L99.505 260.314C99.5354 260.438 99.5911 260.554 99.6688 260.655C99.7464 260.757 99.8443 260.841 99.9561 260.902C100.068 260.964 100.191 261.001 100.318 261.013C100.446 261.024 100.574 261.009 100.695 260.968C102.807 260.194 105.757 259.011 108.389 258.089C111.473 257.005 112.402 257.082 115.866 255.477C117.978 254.513 117.337 252.182 116.352 252.408C111.867 253.407 110.593 253.64 105.989 252.746C105.503 252.629 104.995 252.644 104.517 252.788Z" fill="#57534E"/>
<path opacity="0.2" d="M101.356 244.115L103.454 250.556L98.1463 252.513L96.0483 246.072L101.356 244.115Z" fill="#57534E"/>
<path d="M105.644 252.95C105.619 252.95 105.595 252.943 105.575 252.929C105.555 252.915 105.54 252.895 105.531 252.872C105.515 252.85 105.506 252.823 105.506 252.795C105.506 252.767 105.515 252.74 105.531 252.718C105.735 252.506 107.559 250.641 108.347 250.782C108.419 250.796 108.485 250.828 108.539 250.877C108.594 250.925 108.634 250.987 108.657 251.056C108.704 251.17 108.723 251.292 108.714 251.415C108.704 251.537 108.665 251.656 108.601 251.76C108.171 252.464 106.573 252.816 105.665 252.943L105.644 252.95ZM108.235 251.049C107.791 251.049 106.756 251.908 106.031 252.612C107.27 252.401 108.143 252.042 108.375 251.626C108.412 251.554 108.431 251.475 108.431 251.394C108.431 251.313 108.412 251.234 108.375 251.162C108.366 251.133 108.349 251.108 108.327 251.088C108.305 251.069 108.278 251.055 108.249 251.049H108.235Z" fill="#F43F5E"/>
<path d="M105.644 252.95H105.609C105.586 252.943 105.566 252.93 105.55 252.913C105.534 252.896 105.522 252.874 105.517 252.851C105.517 252.788 105.221 251.274 105.728 250.465C105.872 250.231 106.102 250.064 106.369 250C106.728 249.916 106.883 250.056 106.946 250.197C107.228 250.775 106.292 252.394 105.735 252.915C105.723 252.926 105.709 252.935 105.693 252.941C105.677 252.948 105.661 252.95 105.644 252.95ZM106.559 250.239H106.418C106.321 250.261 106.229 250.303 106.149 250.362C106.069 250.421 106.002 250.497 105.954 250.584C105.694 251.19 105.62 251.859 105.742 252.506C106.277 251.873 106.876 250.641 106.707 250.296C106.728 250.296 106.672 250.239 106.559 250.239Z" fill="#F43F5E"/>
<path d="M75.8294 194.912C63.5094 167.871 54.118 156.312 55.0684 141.774L74.9283 139.74C74.9283 139.74 86.5865 174.869 89.9024 191.589C93.352 208.964 103.912 246.396 103.912 246.396L95.1331 248.853C95.1331 248.853 77.9484 214.392 75.8294 194.912Z" fill="#F43F5E"/>
<path opacity="0.2" d="M57.0468 155.284C59.1588 161.669 62.8688 168.618 67.4941 177.706C67.7335 178.157 67.9728 178.607 68.1981 179.072C67.3674 168.04 66.6704 158.755 57.0468 155.284Z" fill="#57534E"/>
<path d="M104.243 243.727L104.912 247.649L95.5977 251.373L93.9152 248.064L104.243 243.727Z" fill="#57534E"/>
<path d="M47.1344 251.366L46.6909 264.495L52.9706 264.411L53.4212 251.274L47.1344 251.366Z" fill="#FFC3BD"/>
<path d="M52.8931 261.567L46.719 261.665C46.6107 261.666 46.5065 261.707 46.4261 261.78C46.3456 261.852 46.2946 261.952 46.2826 262.06L45.7475 267.107C45.7367 267.235 45.7528 267.364 45.7947 267.486C45.8367 267.607 45.9035 267.719 45.991 267.813C46.0785 267.907 46.1847 267.982 46.3028 268.032C46.4209 268.083 46.5483 268.108 46.6768 268.107C48.8944 268.03 49.5984 267.854 52.3933 267.804C55.6669 267.755 56.6736 267.889 60.5104 267.804C62.8336 267.762 63.2067 265.418 62.2141 265.206C59.0672 264.552 55.7232 263.299 54.3082 261.961C53.9036 261.655 53.3977 261.514 52.8931 261.567Z" fill="#57534E"/>
<path opacity="0.2" d="M47.1344 251.366L46.9021 258.138L53.1888 258.047L53.4211 251.281L47.1344 251.366Z" fill="#57534E"/>
<path d="M51.7737 261.996C51.7491 261.997 51.7246 261.991 51.7034 261.979C51.6821 261.966 51.665 261.948 51.654 261.926C51.6386 261.904 51.6302 261.878 51.6302 261.852C51.6302 261.825 51.6386 261.8 51.654 261.778C51.8512 261.56 53.5619 259.666 54.3433 259.779C54.4157 259.789 54.4842 259.817 54.5422 259.862C54.6002 259.906 54.6457 259.965 54.6742 260.032C54.7309 260.141 54.7606 260.262 54.7606 260.384C54.7606 260.507 54.7309 260.627 54.6742 260.736C54.294 261.475 52.696 261.848 51.7808 262.003L51.7737 261.996ZM54.2659 260.039C53.8083 260.039 52.8579 260.933 52.1539 261.658C53.4 261.405 54.2659 261.018 54.463 260.609C54.5012 260.538 54.5212 260.458 54.5212 260.377C54.5212 260.296 54.5012 260.216 54.463 260.145C54.4517 260.118 54.4333 260.094 54.4097 260.077C54.3862 260.06 54.3584 260.049 54.3292 260.046L54.2659 260.039Z" fill="#F43F5E"/>
<path d="M51.7737 261.996H51.7385C51.7149 261.99 51.6934 261.977 51.6762 261.96C51.6589 261.943 51.6464 261.921 51.6399 261.898C51.6399 261.834 51.2175 260.356 51.6822 259.546C51.7458 259.429 51.8331 259.325 51.9384 259.243C52.0438 259.161 52.1651 259.101 52.2946 259.068C52.3982 259.02 52.5153 259.011 52.625 259.042C52.7347 259.073 52.8298 259.142 52.893 259.237C53.2169 259.8 52.3932 261.426 51.8652 261.961C51.8403 261.984 51.8076 261.997 51.7737 261.996ZM52.4777 259.3H52.3439C52.2484 259.324 52.1589 259.368 52.0813 259.428C52.0037 259.489 51.9397 259.565 51.8934 259.652C51.6749 260.263 51.6503 260.927 51.823 261.553C52.3228 260.912 52.8367 259.68 52.6396 259.342C52.6064 259.314 52.5637 259.299 52.5199 259.3H52.4777Z" fill="#F43F5E"/>
<path d="M47.2118 199.361C45.4307 179.114 39.7775 157.635 42.6076 142.879L63.3475 141.077C63.3475 141.077 65.6284 182.761 63.3475 200.009C61.0031 217.947 54.8995 253.985 54.8995 253.985L45.7475 254.118C45.7475 254.118 44.7759 219.221 47.2118 199.361Z" fill="#F43F5E"/>
<path d="M56.2652 251.95L55.6668 255.85L45.4307 256.033L44.8534 252.344L56.2652 251.95Z" fill="#57534E"/>
<path d="M93.9645 80.4558C93.9811 80.1784 93.943 79.9005 93.8522 79.6379C93.7614 79.3753 93.6199 79.1331 93.4355 78.9253C93.2511 78.7174 93.0276 78.5478 92.7778 78.4263C92.5279 78.3048 92.2566 78.2337 91.9792 78.2171C91.4191 78.1835 90.8685 78.3737 90.4487 78.746C90.0288 79.1184 89.7741 79.6422 89.7405 80.2023V80.3079C89.4166 81.7159 89.0365 83.2718 88.6915 84.722C88.3466 86.1723 87.889 87.6155 87.3891 88.946C86.957 90.2236 86.3981 91.4547 85.7206 92.6209C85.4686 93.0587 85.1687 93.4672 84.8266 93.8388C83.5537 93.6564 82.2917 93.405 81.0461 93.0855C79.3213 92.635 77.5261 92.0929 75.7942 91.5086C74.0624 90.9243 72.2742 90.2907 70.5002 89.6289C68.7261 88.9671 66.9802 88.2702 65.2694 87.6155H65.192C64.153 87.2345 63.0071 87.2692 61.9932 87.7125C60.9792 88.1559 60.1755 88.9735 59.7497 89.9949C59.3239 91.0163 59.3088 92.1626 59.7076 93.1949C60.1064 94.2272 60.8883 95.0656 61.8902 95.5355C63.7981 96.3943 65.6285 97.0702 67.5222 97.7812C69.416 98.4923 71.3238 99.0977 73.281 99.6609C75.2381 100.224 77.2234 100.724 79.3002 101.111C81.5132 101.568 83.7717 101.766 86.0304 101.703H86.2486C86.8241 101.675 87.3834 101.503 87.8749 101.203C88.9671 100.526 89.9107 99.6354 90.6486 98.5838C91.2534 97.7238 91.7632 96.8009 92.1693 95.8311C92.5462 94.968 92.8523 94.0757 93.0845 93.163C93.3168 92.29 93.5069 91.4241 93.6477 90.5723C93.9248 88.8932 94.0894 87.1975 94.1405 85.4964C94.1944 83.8142 94.1356 82.1302 93.9645 80.4558Z" fill="#FFC3BD"/>
<path d="M92.5635 83.3492L98.0688 80.9908L93.4717 75.8798C93.4717 75.8798 88.3254 78.4494 89.6137 81.5118L92.5635 83.3492Z" fill="#FFC3BD"/>
<path d="M100.244 77.0977L98.28 74.7393C98.0355 74.4484 97.698 74.2509 97.3247 74.1804C96.9513 74.1098 96.5651 74.1705 96.2313 74.3521L93.5068 75.8446L98.104 80.9556L100.026 79.4631C100.2 79.3254 100.345 79.1536 100.45 78.9584C100.556 78.7631 100.621 78.5484 100.642 78.3272C100.662 78.106 100.638 77.883 100.569 77.6716C100.501 77.4603 100.39 77.265 100.244 77.0977Z" fill="#FFC3BD"/>
<path d="M61.7072 85.5598C67.2899 85.1655 78.3568 91.579 78.3568 91.579L72.936 103.103C69.5845 102.394 66.3871 101.089 63.4954 99.2526C61.9114 98.274 55.0896 86.0315 61.7072 85.5598Z" fill="#57534E"/>
<path d="M62.376 85.5457C54.9347 85.8056 47.5543 86.988 40.4042 89.0657C37.025 90.1287 34.0682 93.2897 34.7018 96.7675C36.1731 105.215 39.3834 119.331 41.0378 143.802C44.0509 144.675 54.0266 143.837 61.0032 143.147C61.7635 143.077 63.5728 141.246 63.5728 141.246C63.5728 141.246 65.2835 142.654 66.248 142.513C70.8663 141.809 74.5271 140.936 75.3578 140C74.6538 133.059 72.8093 117.838 71.7533 107.954C71.6125 104.054 71.007 96.866 69.4019 92.7899C67.8742 88.9249 66.4874 85.4612 62.376 85.5457Z" fill="#57534E"/>
<path d="M48.0426 77.3371C48.9649 81.4836 48.6551 85.9188 46.2897 88.9179C48.0286 91.5015 52.0766 93.5291 56.0964 94.5499C58.6519 91.4875 58.5111 88.2843 57.3565 86.5947C57.3565 84.2363 57.0961 82.5889 57.1805 80.8219L48.0426 77.3371Z" fill="#FFC3BD"/>
<path d="M56.0963 94.5358C56.6153 93.8311 56.9516 93.0087 57.0749 92.1422C57.1805 90.875 59.3981 91.7127 59.3981 91.7127C58.5583 92.9218 57.4211 93.894 56.0963 94.5358Z" fill="#E0E0E0"/>
<path d="M56.0963 94.5358C55.9679 94.0801 55.7038 93.6743 55.3391 93.3725C54.9744 93.0707 54.5264 92.8871 54.0547 92.8462C52.9467 92.7011 51.8201 92.8094 50.76 93.163C50.76 93.163 53.928 94.6132 56.0963 94.5358Z" fill="#E0E0E0"/>
<path opacity="0.2" d="M50.9845 76.1895H50.9149C50.9497 76.2452 50.9776 76.2313 50.9845 76.1895Z" fill="#57534E"/>
<path opacity="0.2" d="M57.1875 80.8148L49.9926 77.6257C49.2886 81.4202 53.0479 83.2999 57.279 84.018C57.1935 82.9526 57.163 81.8834 57.1875 80.8148Z" fill="#57534E"/>
<path d="M57.2649 63.3908C62.5519 62.7854 63.7487 66.4884 61.4115 71.2756C60.1473 70.3816 59.1126 69.2012 58.3919 67.8308C57.6713 66.4605 57.2851 64.939 57.2649 63.3908Z" fill="#57534E"/>
<path d="M46.3529 70.3182C47.4089 75.8305 47.43 79.3716 50.9852 81.2372C58.863 85.3767 62.2492 81.8145 62.8476 76.0839C63.4038 70.9236 61.5875 62.7713 55.864 61.2999C54.5956 60.9759 53.2657 60.9787 51.9987 61.3081C50.7317 61.6375 49.5689 62.2827 48.6189 63.1835C47.669 64.0843 46.9628 65.2111 46.5666 66.4588C46.1703 67.7065 46.0968 69.0344 46.3529 70.3182Z" fill="#FFC3BD"/>
<path d="M47.9018 74.1972C50.0138 74.7111 50.8727 73.9015 50.9501 73.5918C50.4047 73.5124 49.8751 73.3486 49.3802 73.106C49.3802 73.106 50.5629 72.7329 50.6826 71.9022C49.7322 71.9022 47.937 70.4942 48.5072 68.9947C49.0775 67.4951 48.8663 67.115 47.9018 66.7207C46.1075 66.2534 44.237 66.1552 42.4036 66.4321C42.7288 66.7216 43.0969 66.9591 43.4948 67.1361C43.4948 67.1361 41.3828 68.2062 42.4036 69.9521C43.4244 71.698 45.5293 73.1623 45.3604 74.2183C47.05 74.8449 47.9018 74.1972 47.9018 74.1972Z" fill="#57534E"/>
<path d="M60.968 61.3915C62.8829 61.3915 63.953 60.2932 64.0868 59.0612C62.4464 59.9905 60.074 59.5188 55.7162 58.0193C51.7386 56.6113 48.9156 57.442 47.0148 58.9275C47.05 58.0827 48.641 56.7662 48.641 56.7662C48.641 56.7662 44.8746 56.7662 43.0583 59.7371C41.608 62.1095 43.1357 63.3627 43.1357 63.3627C43.1357 63.3627 40.017 63.3204 39.1018 65.8196C41.1364 64.9044 42.2205 65.9886 42.2205 65.9886C41.7621 66.3441 41.2516 66.6267 40.7069 66.8263C41.3616 67.9316 43.2132 67.3614 43.2132 67.3614C46.4375 69.2692 56.1104 66.4532 57.6381 65.7492C56.8053 65.636 55.991 65.4135 55.2164 65.0875C55.2164 65.0875 61.4397 63.1515 64.0164 64.6228C64.488 63.4542 62.6154 61.8561 60.968 61.3915Z" fill="#F43F5E"/>
<path d="M60.7075 76.6683C60.7075 76.6683 59.0109 76.2388 54.2941 76.1473C54.5837 76.9859 55.1427 77.7051 55.8838 78.1928C56.6249 78.6805 57.5066 78.9093 58.3913 78.8436C58.6908 78.8729 58.993 78.8378 59.2778 78.7408C59.5626 78.6438 59.8234 78.4871 60.0427 78.2811C60.262 78.0751 60.4347 77.8247 60.5494 77.5465C60.6641 77.2684 60.718 76.9689 60.7075 76.6683Z" fill="#57534E"/>
<path d="M57.2298 77.7172C58.1719 77.6812 59.1011 77.945 59.8839 78.4705C59.4448 78.7671 58.9202 78.9106 58.3914 78.8788C57.4498 78.9105 56.5219 78.6471 55.7373 78.1255C56.1768 77.8299 56.701 77.6865 57.2298 77.7172Z" fill="#ED847E"/>
<path d="M60.4892 76.626C60.3696 76.9287 60.2499 77.2385 59.7852 77.33C58.3788 77.3026 56.9774 77.1543 55.5964 76.8865C55.3714 76.8654 55.1548 76.7903 54.9648 76.6678C54.7749 76.5453 54.6173 76.3788 54.5052 76.1825C56.5086 76.17 58.5097 76.3183 60.4892 76.626Z" fill="white"/>
<path opacity="0.2" d="M54.125 75.3166C54.125 75.3166 52.8227 75.1758 53.0409 76.2177C53.2239 75.7742 54.125 75.3166 54.125 75.3166Z" fill="#57534E"/>
<path opacity="0.2" d="M53.2944 70.8673C52.5455 70.5606 51.7061 70.5606 50.9572 70.8673C51.7289 71.0182 52.5227 71.0182 53.2944 70.8673Z" fill="#57534E"/>
<path opacity="0.2" d="M53.224 71.4305C52.8645 71.3583 52.4936 71.3657 52.1373 71.452C51.7809 71.5384 51.4478 71.7016 51.1613 71.9303C51.8763 71.9105 52.5792 71.7402 53.224 71.4305Z" fill="#57534E"/>
<path opacity="0.2" d="M61.0736 69.8606C61.0736 69.8606 61.665 69.1988 62.1155 69.41C61.8193 69.6581 61.4573 69.8146 61.0736 69.8606Z" fill="#57534E"/>
<path opacity="0.2" d="M61.0736 70.2759C61.0736 70.2759 61.6438 69.8465 61.9747 70.2759C61.832 70.3356 61.6789 70.3663 61.5242 70.3663C61.3695 70.3663 61.2163 70.3356 61.0736 70.2759Z" fill="#57534E"/>
<path d="M44.4663 75.042C44.9057 76.2453 45.8045 77.2251 46.9655 77.7665C48.5143 78.4705 49.5562 77.147 49.3591 75.5489C49.176 74.1409 48.1552 72.0289 46.4938 71.9866C46.1304 71.9857 45.7724 72.0749 45.452 72.2462C45.1315 72.4176 44.8586 72.6658 44.6577 72.9686C44.4568 73.2714 44.3341 73.6193 44.3007 73.9812C44.2673 74.3431 44.3242 74.7075 44.4663 75.042Z" fill="#FFC3BD"/>
<path d="M54.1181 71.0926C54.1815 71.5431 54.4631 71.8811 54.7588 71.8388C55.0544 71.7966 55.2516 71.4023 55.1953 70.9447C55.1389 70.4871 54.8503 70.1563 54.5546 70.1985C54.2589 70.2407 54.0618 70.6772 54.1181 71.0926Z" fill="#57534E"/>
<path d="M59.7711 70.3323C59.8275 70.7828 60.1161 71.1208 60.4118 71.0785C60.7075 71.0363 60.8975 70.635 60.8412 70.1844C60.7849 69.7339 60.4963 69.396 60.2006 69.4382C59.9049 69.4804 59.7078 69.8747 59.7711 70.3323Z" fill="#57534E"/>
<path d="M57.8986 70.6068C58.6732 71.8877 59.6208 73.0556 60.7146 74.0775C60.4411 74.3543 60.1102 74.5677 59.7453 74.7027C59.3804 74.8377 58.9903 74.891 58.6026 74.859L57.8986 70.6068Z" fill="#ED847E"/>
<path d="M52.689 69.0369C52.6473 69.0463 52.604 69.0463 52.5623 69.0369C52.531 69.0201 52.5035 68.9971 52.4814 68.9693C52.4594 68.9414 52.4432 68.9094 52.434 68.8751C52.4248 68.8408 52.4227 68.805 52.4278 68.7699C52.4329 68.7348 52.4451 68.701 52.4637 68.6708C52.664 68.2922 52.9519 67.9668 53.3033 67.7219C53.6548 67.477 54.0596 67.3196 54.4842 67.2628C54.5194 67.2609 54.5545 67.266 54.5877 67.2777C54.6209 67.2894 54.6514 67.3076 54.6776 67.3311C54.7038 67.3546 54.725 67.3831 54.7402 67.4149C54.7553 67.4467 54.764 67.4811 54.7658 67.5163C54.7687 67.551 54.7645 67.5861 54.7536 67.6192C54.7427 67.6524 54.7252 67.683 54.7023 67.7092C54.6793 67.7355 54.6512 67.7569 54.6198 67.7721C54.5884 67.7873 54.5543 67.7961 54.5194 67.7979C54.1852 67.8471 53.8672 67.974 53.5908 68.1684C53.3145 68.3628 53.0876 68.6193 52.9284 68.9172C52.9025 68.9564 52.8668 68.9881 52.8247 69.0091C52.7827 69.0301 52.7359 69.0397 52.689 69.0369Z" fill="#57534E"/>
<path d="M61.3201 67.3966C61.2775 67.4082 61.2328 67.4092 61.1898 67.3994C61.1468 67.3895 61.1069 67.3692 61.0737 67.3403C60.833 67.1067 60.5402 66.9338 60.2195 66.8358C59.8987 66.7379 59.5593 66.7178 59.2292 66.7771C59.1949 66.7865 59.1592 66.7888 59.124 66.7839C59.0888 66.7789 59.055 66.7669 59.0247 66.7484C58.9944 66.7299 58.9682 66.7055 58.9476 66.6765C58.9271 66.6475 58.9127 66.6147 58.9053 66.5799C58.8882 66.5118 58.8985 66.4397 58.934 66.3791C58.9696 66.3185 59.0276 66.2743 59.0954 66.2561C59.514 66.1749 59.946 66.1965 60.3544 66.3191C60.7627 66.4417 61.1352 66.6617 61.4397 66.9601C61.4888 67.0112 61.5162 67.0793 61.5162 67.1502C61.5162 67.221 61.4888 67.2891 61.4397 67.3403C61.4066 67.371 61.3648 67.3906 61.3201 67.3966Z" fill="#57534E"/>
<path d="M47.064 123.674H46.9443C45.4166 123.336 43.7622 122.97 42.2275 122.492C40.7166 122.064 39.2371 121.532 37.7993 120.901C36.527 120.377 35.3405 119.665 34.2793 118.789C33.8952 118.467 33.5669 118.084 33.3078 117.655C33.2337 117.517 33.1702 117.373 33.1177 117.226C33.1177 117.183 33.1741 117.015 33.1952 116.895L33.336 116.423L33.512 115.888C33.7795 115.142 34.1033 114.318 34.4624 113.502C35.1664 111.868 36.0041 110.186 36.8489 108.51C37.6937 106.835 38.5737 105.152 39.4608 103.477L42.143 98.4641C42.6772 97.4745 42.8018 96.3148 42.4902 95.2343C42.1785 94.1538 41.4555 93.2386 40.4764 92.6854C39.4972 92.1323 38.3402 91.9852 37.2539 92.2759C36.1675 92.5666 35.2385 93.2719 34.6665 94.2401C33.6246 95.986 32.7165 97.7108 31.7872 99.4708C30.8579 101.231 29.992 102.991 29.1683 104.849C28.3446 106.708 27.5421 108.538 26.831 110.481C26.479 111.474 26.127 112.481 25.8384 113.593L25.6342 114.459C25.5709 114.776 25.5075 115.071 25.4512 115.409C25.3903 115.778 25.348 116.149 25.3245 116.522C25.3245 116.747 25.3245 116.895 25.3245 117.176C25.3245 117.458 25.3245 117.704 25.3667 117.965V118.021C25.3806 118.174 25.4088 118.325 25.4512 118.472C25.8034 119.815 26.4369 121.067 27.3097 122.147C28.0881 123.09 29.0014 123.913 30.0201 124.59C31.7705 125.707 33.692 126.53 35.7085 127.025C37.5272 127.49 39.3837 127.791 41.256 127.927C43.0904 128.074 44.9338 128.074 46.7683 127.927C47.3284 127.964 47.8805 127.777 48.3029 127.407C48.7254 127.038 48.9838 126.515 49.0211 125.955C49.0584 125.395 48.8717 124.843 48.5021 124.421C48.1324 123.998 47.61 123.74 47.0499 123.703L47.064 123.674Z" fill="#FFC3BD"/>
<path d="M40.0241 89.1713C33.7303 90.889 27.3521 106.961 27.3521 106.961L36.8913 114.55C36.8913 114.55 42.7767 109.439 44.0791 103.399C45.0577 98.7668 46.4234 87.4183 40.0241 89.1713Z" fill="#57534E"/>
<path d="M43.7411 123.386L49.0493 121.231L49.7533 128.067C49.7533 128.067 44.7126 129.433 43.551 126.87L43.7411 123.386Z" fill="#FFC3BD"/>
<path d="M54.5475 123.477L54.3926 125.913C54.3615 126.383 54.1646 126.826 53.8371 127.164C53.5096 127.501 53.0728 127.712 52.6045 127.758L49.7462 128.039L49.0422 121.203L52.6467 121.365C52.9116 121.375 53.1718 121.438 53.4118 121.55C53.6519 121.662 53.867 121.822 54.0443 122.019C54.2216 122.216 54.3575 122.446 54.444 122.697C54.5304 122.947 54.5656 123.213 54.5475 123.477Z" fill="#FFC3BD"/>
<path d="M47.3596 86.5243C47.5216 87.8196 48.3452 92.1563 54.0547 92.8603C52.0272 93.346 52.006 96.6407 52.006 96.6407C52.006 96.6407 44.5718 92.7617 45.67 87.5451C46.0916 87.0121 46.6917 86.6495 47.3596 86.5243Z" fill="white"/>
<path d="M57.3846 85.2359C57.2438 86.6017 57.638 88.4532 57.0748 92.1422C59.1094 91.6916 60.2287 94.5358 60.2287 94.5358C60.2287 94.5358 61.7705 89.4458 58.6095 85.4823C58.2127 85.3509 57.8014 85.2681 57.3846 85.2359Z" fill="white"/>
<path d="M159.972 72.395C162.949 68.5089 168.42 63.9047 173.432 68.3751C178.078 72.5358 177.909 85.2711 172.496 88.7278C172.672 82.7579 163.252 82.5255 165.146 75.2391C164.176 76.5223 162.984 77.6214 161.626 78.4846L159.972 72.395Z" fill="#57534E"/>
<path d="M158.683 70.7687C161.211 70.0647 161.865 69.762 162.907 70.2126C163.949 70.6631 163.562 72.6695 164.491 74.1691C165.421 75.6686 166.645 76.8795 163.632 78.3367C162.302 77.5163 161.169 76.4128 160.314 75.1048C159.458 73.7968 158.902 72.3163 158.683 70.7687Z" fill="#F43F5E"/>
<path d="M148.574 69.3467C137.254 66.235 137.049 82.7227 139.119 92.5787C139.835 90.4595 140.98 88.5109 142.484 86.8551L152.185 93.9444C159.035 91.8324 170.933 83.9547 161.337 74.1409C157.712 62.7783 148.574 69.3467 148.574 69.3467Z" fill="#57534E"/>
<path d="M163.484 247.811L170.44 248.318C169.483 253.858 168.574 262.609 168.574 262.609H163.048C163.048 262.609 163.689 251.605 163.484 247.811Z" fill="#B55B52"/>
<path d="M126.961 247.811L133.867 248.318C132.311 253.858 130.481 262.609 130.481 262.609H124.962C124.962 262.609 126.764 251.605 126.961 247.811Z" fill="#B55B52"/>
<path d="M157.078 268.079C161.872 268.079 161.534 268.001 164.238 267.91C166.547 267.832 167.054 268.121 168.941 268.079C170.489 268.079 170.539 266.558 170.187 264.854C170.053 264.2 169.849 263.446 169.659 262.496C169.608 262.232 169.465 261.994 169.257 261.825C169.048 261.655 168.787 261.564 168.518 261.567H162.886C162.681 261.567 162.478 261.616 162.295 261.709C162.111 261.802 161.952 261.936 161.83 262.102C161.163 262.976 160.325 263.706 159.366 264.244C158.407 264.783 157.348 265.12 156.254 265.235C153.671 265.58 155.17 268.079 157.078 268.079Z" fill="#F43F5E"/>
<path d="M116.633 265.918C121.252 266.706 121.78 266.495 124.377 266.854C126.637 267.164 126.82 267.685 129.08 268.079C130.572 268.339 131.431 266.734 131.368 265.411C131.368 264.615 131.171 263.686 131.178 262.707C131.188 262.455 131.104 262.207 130.943 262.013C130.782 261.818 130.555 261.689 130.305 261.651L125.497 260.821C125.307 260.789 125.113 260.796 124.927 260.842C124.74 260.888 124.565 260.972 124.412 261.088C123.344 261.935 122.116 262.559 120.801 262.922C119.486 263.285 118.112 263.379 116.76 263.2C114.212 262.968 114.782 265.594 116.633 265.918Z" fill="#F43F5E"/>
<path d="M134.459 139.613C134.459 139.613 130.101 173.518 130.481 195.053C128.827 215.272 126.166 253.943 126.166 253.943C126.25 254.97 131.699 254.562 132.663 253.943C132.663 253.943 145.152 227.845 143.118 195.053C156.994 160.853 156.163 139.613 156.163 139.613H134.459Z" fill="#F43F5E"/>
<path opacity="0.2" d="M152.298 166.991C151.221 171.413 149.841 176.305 148.074 181.635C147.553 170.899 144.653 156.53 144.554 156.044L152.298 166.991Z" fill="#57534E"/>
<path d="M140.365 139.613C140.365 139.613 150.284 177.882 154.213 196.679C158.338 216.391 164.118 240.827 162.971 253.943C164.076 254.59 168.025 254.647 170.257 253.943C170.257 253.943 178.747 216.553 167.948 197.552C171.855 150.792 159.5 139.613 159.5 139.613H140.365Z" fill="#F43F5E"/>
<path d="M162.499 251.211C162.452 252.114 162.342 253.013 162.168 253.9C162.151 253.974 162.149 254.05 162.162 254.124C162.176 254.198 162.205 254.268 162.247 254.33C162.29 254.393 162.345 254.445 162.409 254.485C162.473 254.525 162.544 254.551 162.619 254.562C165.273 254.991 169.152 254.372 170.363 254.154C170.477 254.132 170.583 254.076 170.664 253.993C170.746 253.91 170.801 253.804 170.82 253.689L171.292 251.169C171.308 251.089 171.306 251.007 171.285 250.929C171.265 250.85 171.228 250.777 171.176 250.715C171.124 250.653 171.059 250.603 170.985 250.57C170.911 250.536 170.831 250.519 170.75 250.521L163.006 250.669C162.871 250.685 162.746 250.749 162.654 250.848C162.561 250.947 162.506 251.075 162.499 251.211Z" fill="#57534E"/>
<path opacity="0.1" d="M162.499 251.211C162.452 252.114 162.342 253.013 162.168 253.9C162.151 253.974 162.149 254.05 162.162 254.124C162.176 254.198 162.205 254.268 162.247 254.33C162.29 254.393 162.345 254.445 162.409 254.485C162.473 254.525 162.544 254.551 162.619 254.562C165.273 254.991 169.152 254.372 170.363 254.154C170.477 254.132 170.583 254.076 170.664 253.993C170.746 253.91 170.801 253.804 170.82 253.689L171.292 251.169C171.308 251.089 171.306 251.007 171.285 250.929C171.265 250.85 171.228 250.777 171.176 250.715C171.124 250.653 171.059 250.603 170.985 250.57C170.911 250.536 170.831 250.519 170.75 250.521L163.006 250.669C162.871 250.685 162.746 250.749 162.654 250.848C162.561 250.947 162.506 251.075 162.499 251.211Z" fill="white"/>
<path d="M125.638 251.091C125.567 251.795 125.433 253.041 125.3 253.971C125.289 254.042 125.292 254.115 125.31 254.185C125.327 254.255 125.358 254.32 125.402 254.378C125.445 254.436 125.499 254.484 125.562 254.521C125.624 254.557 125.693 254.581 125.764 254.59C128.153 254.786 130.555 254.757 132.938 254.506C133.056 254.495 133.169 254.448 133.259 254.371C133.35 254.294 133.415 254.191 133.445 254.076L134.149 251.563C134.174 251.483 134.18 251.398 134.167 251.314C134.153 251.231 134.121 251.153 134.071 251.084C134.022 251.016 133.958 250.96 133.883 250.921C133.809 250.882 133.726 250.861 133.642 250.859L126.264 250.563C126.188 250.557 126.112 250.565 126.039 250.588C125.966 250.611 125.899 250.648 125.841 250.697C125.783 250.746 125.735 250.806 125.7 250.874C125.665 250.941 125.644 251.015 125.638 251.091Z" fill="#57534E"/>
<path opacity="0.1" d="M125.638 251.091C125.567 251.795 125.433 253.041 125.3 253.971C125.289 254.042 125.292 254.115 125.31 254.185C125.327 254.255 125.358 254.32 125.402 254.378C125.445 254.436 125.499 254.484 125.562 254.521C125.624 254.557 125.693 254.581 125.764 254.59C128.153 254.786 130.555 254.757 132.938 254.506C133.056 254.495 133.169 254.448 133.259 254.371C133.35 254.294 133.415 254.191 133.445 254.076L134.149 251.563C134.174 251.483 134.18 251.398 134.167 251.314C134.153 251.231 134.121 251.153 134.071 251.084C134.022 251.016 133.958 250.96 133.883 250.921C133.809 250.882 133.726 250.861 133.642 250.859L126.264 250.563C126.188 250.557 126.112 250.565 126.039 250.588C125.966 250.611 125.899 250.648 125.841 250.697C125.783 250.746 125.735 250.806 125.7 250.874C125.665 250.941 125.644 251.015 125.638 251.091Z" fill="white"/>
<path d="M140.4 104.167C139.963 103.896 139.477 103.714 138.97 103.631C138.462 103.549 137.943 103.567 137.443 103.686C136.943 103.804 136.471 104.02 136.054 104.321C135.637 104.622 135.284 105.003 135.015 105.441C134.015 107.06 133.065 108.721 132.079 110.369C131.093 112.016 130.15 113.663 129.207 115.297C127.665 117.979 126.151 120.675 124.645 123.372C124.328 123.301 124.011 123.224 123.68 123.118C122.492 122.736 121.334 122.265 120.217 121.71C119.041 121.147 117.872 120.499 116.697 119.809C115.521 119.119 114.352 118.401 113.254 117.662L113.155 117.606C112.767 117.351 112.3 117.244 111.839 117.304C111.378 117.363 110.953 117.585 110.642 117.93C110.33 118.275 110.152 118.72 110.139 119.184C110.126 119.649 110.28 120.103 110.572 120.464C111.072 121.098 111.55 121.64 112.071 122.189C112.592 122.738 113.099 123.28 113.641 123.801C114.753 124.851 115.929 125.831 117.161 126.737C118.452 127.685 119.828 128.51 121.273 129.201C122.913 130.005 124.69 130.497 126.51 130.651C127.087 130.691 127.665 130.578 128.184 130.324C128.703 130.069 129.146 129.682 129.467 129.201L129.629 128.961C131.765 125.756 133.848 122.524 135.881 119.267C136.901 117.641 137.901 115.994 138.887 114.339C139.872 112.685 140.858 111.045 141.794 109.355C142.266 108.475 142.384 107.449 142.125 106.485C141.866 105.52 141.249 104.691 140.4 104.167Z" fill="#B55B52"/>
<path d="M104.848 120.147L106.165 121.555C106.408 121.818 106.711 122.019 107.048 122.142C107.384 122.264 107.745 122.304 108.101 122.259L111.466 121.816C112.128 121.727 112.76 121.482 113.31 121.102C113.859 120.721 114.311 120.215 114.627 119.626L115.021 118.922C113.001 116.43 108.981 115.219 108.981 115.219L107.868 114.748C107.644 114.643 107.401 114.585 107.154 114.575C106.907 114.566 106.661 114.606 106.429 114.694C106.198 114.781 105.986 114.913 105.806 115.083C105.627 115.253 105.483 115.458 105.383 115.684L104.419 117.866C104.265 118.248 104.224 118.665 104.3 119.07C104.376 119.474 104.566 119.848 104.848 120.147Z" fill="#B55B52"/>
<path d="M139.71 100.097C134.93 100.999 132.396 105.025 127.693 113.516C128.784 116.677 136.204 119.697 136.204 119.697C136.204 119.697 147.56 106.264 139.71 100.097Z" fill="#57534E"/>
<path d="M158.12 133.643C158.235 135.645 158.47 137.639 158.824 139.613H134.712L134.459 133.46C134.459 133.46 153.086 132.404 158.12 133.643Z" fill="#B55B52"/>
<path d="M132.135 108.552C131.992 112.265 132.049 115.983 132.304 119.69C132.509 124.526 131.6 125.716 132.304 133.643C134.951 135.199 152.382 135.135 160.957 134.03C160.436 127.166 159.796 122.541 164.442 107.109C165.519 103.533 163.118 100.069 159.282 99.7242C158.254 99.6327 157.17 99.5483 156.05 99.499C152.136 99.2348 148.208 99.2348 144.294 99.499C143.019 99.6046 141.696 99.7594 140.429 99.9214C135.881 100.52 132.276 104.265 132.135 108.552Z" fill="#57534E"/>
<path d="M155.248 86.2779C154.227 90.0583 152.967 96.9857 155.424 99.5131C155.424 99.5131 157.31 103.033 146.159 102.484C138.352 102.083 143.674 99.5131 143.674 99.5131C147.961 98.5063 148.088 95.3735 147.574 92.4379L155.248 86.2779Z" fill="#B55B52"/>
<path opacity="0.2" d="M152.115 88.7911L147.56 92.4308C147.694 93.127 147.765 93.8339 147.771 94.5428C149.397 94.3105 151.742 92.5364 152.037 90.8539C152.192 90.1772 152.219 89.4775 152.115 88.7911Z" fill="#57534E"/>
<path d="M158.535 79.4983C157.458 85.25 157.127 87.6999 153.84 90.4526C148.912 94.6062 142.125 92.4097 141.477 86.5454C140.893 81.2724 142.759 72.754 148.679 70.8532C149.938 70.4022 151.295 70.2963 152.609 70.5463C153.923 70.7963 155.146 71.3932 156.152 72.2752C157.157 73.1571 157.908 74.2919 158.327 75.562C158.747 76.8321 158.818 78.1912 158.535 79.4983Z" fill="#B55B52"/>
<path d="M156.437 79.1252C154.192 82.7227 156.437 84.5108 156.437 84.5108L159.035 81.9412L156.437 79.1252Z" fill="#57534E"/>
<path d="M143.927 85.8625C143.927 85.8625 147.095 85.5105 150.263 85.1937C148.743 87.355 144.645 88.1787 143.927 85.8625Z" fill="white"/>
<path d="M149.426 80.4558C149.355 80.9415 149.045 81.3147 148.722 81.2935C148.398 81.2724 148.215 80.8571 148.285 80.3713C148.356 79.8855 148.665 79.5124 148.989 79.5335C149.313 79.5547 149.496 79.97 149.426 80.4558Z" fill="#57534E"/>
<path d="M143.554 80.1108C143.484 80.5966 143.174 80.9697 142.85 80.9486C142.526 80.9275 142.343 80.5121 142.414 80.0263C142.484 79.5406 142.794 79.1604 143.118 79.1886C143.442 79.2167 143.625 79.6251 143.554 80.1108Z" fill="#57534E"/>
<path d="M143.252 79.2238L142.153 78.8014C142.153 78.8014 142.632 79.7588 143.252 79.2238Z" fill="#57534E"/>
<path d="M145.075 81.026C144.489 82.1059 143.767 83.1066 142.928 84.0039C143.151 84.2001 143.416 84.3427 143.703 84.4208C143.989 84.4989 144.29 84.5104 144.582 84.4545L145.075 81.026Z" fill="#A02724"/>
<path d="M159.352 84.4052C159.167 84.9336 158.874 85.4179 158.493 85.8275C158.111 86.2371 157.649 86.563 157.134 86.7847C155.839 87.2705 155.107 85.8062 155.396 84.2363C155.656 82.8283 156.642 80.8641 157.979 81.0683C159.317 81.2724 159.887 82.9972 159.352 84.4052Z" fill="#B55B52"/>
<path d="M148.574 70.1774C146.933 74.2746 158.937 80.7374 159.549 85.7851C162.541 80.7585 159.655 66.3406 148.574 70.1774Z" fill="#57534E"/>
<path d="M149.299 69.9732C145.117 71.1067 143.927 74.1972 143.927 74.1972C143.927 74.1972 152.565 72.0078 149.299 69.9732Z" fill="#57534E"/>
<path d="M151.08 77.8439C151.042 77.8448 151.005 77.8369 150.971 77.8211C150.937 77.8052 150.907 77.7817 150.883 77.7524C150.654 77.4905 150.364 77.2892 150.038 77.1664C149.713 77.0436 149.362 77.003 149.017 77.0484C148.982 77.0555 148.946 77.0551 148.91 77.0474C148.875 77.0397 148.842 77.0248 148.813 77.0036C148.784 76.9825 148.76 76.9555 148.741 76.9244C148.723 76.8934 148.712 76.8589 148.708 76.8231C148.697 76.7469 148.716 76.6696 148.76 76.6068C148.805 76.5441 148.872 76.5006 148.947 76.4852C149.383 76.4232 149.827 76.4705 150.24 76.6229C150.653 76.7753 151.021 77.0279 151.312 77.3582C151.36 77.4176 151.384 77.4933 151.377 77.5694C151.37 77.6455 151.335 77.7162 151.277 77.7665C151.221 77.8119 151.152 77.839 151.08 77.8439Z" fill="#57534E"/>
<path d="M142.442 76.3092C142.406 76.3141 142.37 76.3109 142.336 76.3C142.302 76.289 142.271 76.2705 142.245 76.2459C142.218 76.2197 142.197 76.1884 142.183 76.154C142.168 76.1195 142.161 76.0826 142.161 76.0452C142.161 76.0079 142.168 75.9709 142.183 75.9365C142.197 75.902 142.218 75.8708 142.245 75.8446C142.54 75.4887 142.913 75.2057 143.336 75.0177C143.758 74.8296 144.219 74.7416 144.681 74.7604C144.717 74.7655 144.751 74.7778 144.782 74.7967C144.813 74.8156 144.84 74.8407 144.861 74.8703C144.883 74.9 144.897 74.9336 144.905 74.9692C144.913 75.0048 144.913 75.0415 144.906 75.0772C144.891 75.1523 144.849 75.2194 144.788 75.266C144.727 75.3126 144.652 75.3356 144.575 75.3307C144.21 75.321 143.847 75.3953 143.515 75.5478C143.183 75.7004 142.891 75.9272 142.66 76.2107C142.632 76.2408 142.598 76.265 142.561 76.2819C142.523 76.2988 142.483 76.3081 142.442 76.3092Z" fill="#57534E"/>
<path d="M149.123 79.5687L148.025 79.1463C148.025 79.1463 148.482 80.1038 149.123 79.5687Z" fill="#57534E"/>
<path d="M153.213 123.724H146.462L145.899 112.671H153.776L153.213 123.724Z" fill="#F43F5E"/>
<path d="M151.115 120.929H146.293L146.039 115.501H151.115V120.929Z" fill="white"/>
<path d="M154.199 112.143H153.333L153.192 111.58H146.476L146.335 112.143H145.476L145.202 113.206H154.466L154.199 112.143Z" fill="white"/>
<path d="M151.08 115.029L153.002 114.867C153.359 114.837 153.718 114.892 154.05 115.028C154.382 115.164 154.677 115.377 154.91 115.649L157.106 118.239C157.541 118.748 157.846 119.354 157.997 120.006C158.147 120.658 158.139 121.337 157.972 121.985L157.768 122.794C154.593 123.287 150.805 121.478 150.805 121.478L149.672 121.084C149.436 121.009 149.217 120.889 149.029 120.729C148.84 120.57 148.684 120.374 148.572 120.154C148.459 119.934 148.391 119.694 148.372 119.447C148.353 119.201 148.383 118.953 148.461 118.718L149.214 116.451C149.355 116.06 149.607 115.717 149.937 115.465C150.268 115.213 150.665 115.062 151.08 115.029Z" fill="#B55B52"/>
<path d="M170.285 121.942C170.169 120.176 169.934 118.419 169.581 116.684C169.241 114.971 168.804 113.278 168.272 111.615C167.997 110.791 167.708 109.967 167.399 109.151C167.237 108.742 167.082 108.327 166.906 107.919C166.73 107.51 166.561 107.13 166.322 106.638C165.901 105.695 165.124 104.957 164.16 104.585C163.197 104.213 162.125 104.238 161.18 104.654C160.235 105.07 159.493 105.843 159.116 106.804C158.739 107.765 158.758 108.837 159.169 109.784L159.246 109.989L159.627 110.925L160.028 111.953C160.295 112.657 160.535 113.361 160.767 114.065C161.239 115.473 161.647 116.916 162.013 118.352C162.379 119.788 162.64 121.238 162.851 122.675C162.893 122.949 162.921 123.217 162.956 123.491L162.886 123.442C161.985 122.773 161.084 122.034 160.183 121.267L157.472 118.943L157.423 118.901C157.073 118.606 156.632 118.442 156.174 118.437C155.717 118.432 155.271 118.586 154.915 118.873C154.559 119.161 154.314 119.563 154.221 120.011C154.129 120.459 154.196 120.926 154.41 121.33C155.027 122.465 155.707 123.565 156.444 124.625C157.18 125.694 157.974 126.721 158.824 127.701C159.267 128.208 159.746 128.701 160.232 129.201C160.8 129.75 161.42 130.243 162.084 130.672C162.511 130.949 162.963 131.185 163.435 131.376C164.159 131.674 164.942 131.804 165.723 131.756C166.304 131.72 166.872 131.575 167.399 131.327C167.931 131.062 168.409 130.699 168.807 130.257C169.368 129.629 169.779 128.883 170.011 128.074C170.068 127.904 170.104 127.726 170.116 127.546V127.335C170.316 125.545 170.372 123.742 170.285 121.942Z" fill="#B55B52"/>
<path d="M159.528 99.7876C163.752 100.435 165.435 101.717 168.877 110.186C167.314 113.347 159.993 116.367 159.993 116.367C159.993 116.367 155.163 105.399 159.528 99.7876Z" fill="#57534E"/>
<path d="M134.409 141.457C143.048 142.413 151.766 142.396 160.401 141.408C160.492 141.395 160.578 141.36 160.653 141.308C160.728 141.255 160.79 141.186 160.834 141.105C160.877 141.025 160.902 140.935 160.905 140.843C160.908 140.752 160.89 140.661 160.852 140.577C160.64 140.085 160.429 139.585 160.225 139.085C160.181 138.974 160.103 138.881 160.001 138.818C159.899 138.756 159.78 138.729 159.662 138.74C151.359 139.659 142.98 139.659 134.677 138.74C134.603 138.733 134.528 138.741 134.457 138.764C134.386 138.787 134.32 138.824 134.264 138.872C134.207 138.921 134.161 138.98 134.128 139.047C134.095 139.114 134.076 139.187 134.071 139.261C134.022 139.782 133.966 140.296 133.917 140.81C133.896 140.961 133.937 141.114 134.029 141.235C134.122 141.357 134.258 141.436 134.409 141.457Z" fill="#57534E"/>
<path d="M198.684 265.488C203.725 265.101 207.132 261.637 206.766 257.976C206.569 255.949 213.032 255.773 213.032 255.773C212.011 262.038 213.292 262.933 213.736 264.552C214.18 266.171 214.053 267.959 212.715 267.994C211.117 268.037 210.371 267.727 208.379 267.804C206.055 267.896 203.542 267.987 199.41 267.994C197.734 268.001 196.446 265.685 198.684 265.488Z" fill="#F43F5E"/>
<path d="M191.321 147.413C191.321 147.413 192.222 176.784 196.502 198.911C197.516 217.637 206.358 258.807 206.358 258.807C208.564 259.328 210.864 259.306 213.06 258.744C213.06 258.744 217.531 228.669 213.06 198.594C216.327 167.069 215.214 147.413 215.214 147.413H191.321Z" fill="#57534E"/>
<path opacity="0.2" d="M215.376 162.049C215.221 170.863 214.672 183.345 213.088 198.615C213.419 200.868 213.687 203.135 213.891 205.381C202.937 187.253 200.36 158.6 215.376 162.049Z" fill="#57534E"/>
<path d="M251.498 255.829C249.655 253.856 248.092 251.639 246.852 249.24C246.852 249.24 241.086 250.648 242.22 252.323C244.275 255.343 245.275 261.539 242.628 264.869C241.114 266.762 243.508 267.079 245.085 266.277C247.598 264.981 247.493 264.503 248.802 262.369C249.914 260.539 250.358 259.821 251.893 259.039C253.16 258.357 252.554 257.089 251.498 255.829Z" fill="#F43F5E"/>
<path d="M200.029 147.413C200.029 147.413 209.744 188.245 215.869 205.662C222.304 223.966 241.213 252.218 241.917 253.436C244.444 252.732 246.697 251.88 248.197 250.408C248.197 250.408 240.995 221.101 232.864 201.22C229.766 159.747 219.326 147.413 219.326 147.413H200.029Z" fill="#57534E"/>
<path d="M171.588 109.397L171.13 107.004C170.96 106.136 170.567 105.328 169.989 104.659L168.905 103.392C168.556 102.986 168.075 102.715 167.546 102.626C167.018 102.538 166.475 102.637 166.012 102.906L164.604 103.744C164.341 103.897 164.112 104.1 163.928 104.342C163.745 104.584 163.612 104.861 163.537 105.155C163.461 105.449 163.445 105.755 163.489 106.056C163.534 106.356 163.637 106.645 163.794 106.905L164.498 108.123C164.498 108.123 166.11 111.735 168.877 113.241L169.581 112.741C170.155 112.38 170.635 111.89 170.984 111.309C171.332 110.728 171.539 110.073 171.588 109.397Z" fill="#7F3E3B"/>
<path d="M197.086 112.995C196.585 112.719 196.035 112.544 195.467 112.481C194.898 112.418 194.323 112.468 193.773 112.627C193.224 112.787 192.712 113.053 192.266 113.411C191.819 113.769 191.448 114.211 191.173 114.712C191.173 114.67 191.138 114.762 191.109 114.797L190.997 114.966L190.736 115.332C190.56 115.578 190.377 115.832 190.18 116.078C189.786 116.571 189.378 117.064 188.948 117.486C188.12 118.382 187.197 119.184 186.196 119.88C185.257 120.529 184.231 121.041 183.147 121.4C182.612 121.568 182.067 121.7 181.514 121.795C181.413 121.802 181.312 121.802 181.211 121.795C180.963 121.624 180.728 121.436 180.507 121.231C180.014 120.772 179.544 120.288 179.099 119.781C178.156 118.725 177.248 117.528 176.332 116.325C174.516 113.903 172.735 111.326 170.954 108.806L170.919 108.757C170.614 108.336 170.169 108.039 169.664 107.917C169.16 107.795 168.628 107.857 168.165 108.092C167.702 108.327 167.338 108.719 167.138 109.199C166.938 109.678 166.916 110.212 167.075 110.707C168.114 113.797 169.38 116.807 170.862 119.711C171.624 121.214 172.465 122.676 173.383 124.09C173.868 124.794 174.389 125.54 175.002 126.286C175.707 127.16 176.529 127.932 177.445 128.581C178.228 129.121 179.119 129.484 180.057 129.644C180.224 129.673 180.394 129.689 180.564 129.694H180.824H181.352C181.605 129.694 181.859 129.694 182.112 129.694C183.13 129.657 184.143 129.532 185.14 129.32C187.112 128.892 189 128.143 190.729 127.103C192.394 126.116 193.919 124.911 195.263 123.519C195.919 122.85 196.537 122.145 197.115 121.407C197.403 121.034 197.678 120.647 197.952 120.246L198.347 119.619L198.544 119.288L198.776 118.873C199.323 117.868 199.452 116.688 199.136 115.588C198.82 114.488 198.084 113.556 197.086 112.995Z" fill="#7F3E3B"/>
<path d="M190.173 118.838C190.279 121.224 186.505 126.751 191.159 129.954C190.293 131.897 189.554 145.076 191.321 147.434C193.89 149.321 207.794 148.955 219.326 147.434C219.811 142.668 217.214 132.798 220.403 117.402C220.58 116.559 220.578 115.689 220.396 114.847C220.215 114.005 219.858 113.211 219.349 112.517C218.841 111.822 218.191 111.242 217.444 110.815C216.696 110.388 215.867 110.123 215.01 110.038C214.039 109.939 213.018 109.855 211.962 109.806C208.289 109.541 204.603 109.541 200.93 109.806C199.74 109.911 198.508 110.066 197.333 110.228C195.284 110.519 193.417 111.562 192.094 113.153C190.771 114.744 190.086 116.77 190.173 118.838Z" fill="#F43F5E"/>
<path d="M212.328 97.387C211.448 100.907 210.589 106.722 211.99 109.806C211.99 109.806 205.992 110.615 199.318 115.959C198.185 110.594 200.571 109.841 200.571 109.841C203.387 109.193 203.796 105.807 203.796 103.167L212.328 97.387Z" fill="#7F3E3B"/>
<path opacity="0.2" d="M203.746 103.167L208.611 99.8791C208.655 100.623 208.505 101.365 208.174 102.033C207.151 103.952 205.483 105.448 203.465 106.257C203.666 105.24 203.76 104.204 203.746 103.167Z" fill="#57534E"/>
<path d="M214.616 90.875C213.208 96.6478 212.764 99.1188 209.343 101.604C204.197 105.335 197.551 102.392 197.22 96.3239C196.917 90.8609 199.234 82.3425 205.246 81.0119C211.258 79.6814 215.996 85.1022 214.616 90.875Z" fill="#7F3E3B"/>
<path d="M213.37 94.2823C210.885 90.9313 212.103 88.2702 213.37 87.3198C208.287 85.6795 202.233 86.8692 200.853 83.7998C201.775 79.442 203.197 75.3518 205.619 71.9092C208.723 67.5163 222.092 74.8731 224.592 83.4196C225.444 86.2708 214.855 97.6404 213.37 94.2823Z" fill="#57534E"/>
<path d="M205.288 91.4945C205.204 91.9732 204.88 92.3111 204.584 92.2548C204.288 92.1985 204.091 91.7691 204.176 91.2974C204.26 90.8257 204.577 90.4807 204.88 90.5371C205.182 90.5934 205.394 91.0228 205.288 91.4945Z" fill="#57534E"/>
<path d="M199.452 90.5441C199.367 91.0158 199.043 91.3607 198.748 91.3044C198.452 91.2481 198.255 90.8187 198.34 90.347C198.424 89.8753 198.748 89.5303 199.044 89.5867C199.339 89.643 199.536 90.0724 199.452 90.5441Z" fill="#57534E"/>
<path d="M199.17 89.6359L198.093 89.1009C198.093 89.1009 198.516 90.1006 199.17 89.6359Z" fill="#57534E"/>
<path d="M200.867 90.9313C200.252 91.9383 199.504 92.8572 198.642 93.6628C198.853 93.8789 199.108 94.0463 199.39 94.1533C199.672 94.2603 199.975 94.3044 200.275 94.2823L200.867 90.9313Z" fill="#630F0F"/>
<path d="M215.038 96.2535C214.821 96.7512 214.5 97.1969 214.097 97.561C213.694 97.9251 213.218 98.1994 212.701 98.3655C211.378 98.7316 210.73 97.2814 211.103 95.8171C211.441 94.5006 212.511 92.7195 213.849 93.0011C215.186 93.2827 215.644 94.9582 215.038 96.2535Z" fill="#7F3E3B"/>
<path d="M214.524 99.5764C214.524 99.9371 214.417 100.29 214.217 100.589C214.017 100.889 213.732 101.123 213.399 101.261C213.066 101.399 212.699 101.435 212.345 101.365C211.992 101.294 211.667 101.121 211.412 100.866C211.157 100.611 210.983 100.286 210.913 99.9321C210.842 99.5784 210.878 99.2118 211.016 98.8787C211.154 98.5455 211.388 98.2607 211.688 98.0604C211.988 97.86 212.34 97.7531 212.701 97.7531C213.185 97.7531 213.648 97.9452 213.99 98.2871C214.332 98.6291 214.524 99.0928 214.524 99.5764Z" fill="#F43F5E"/>
<path d="M206.9 89.6852C206.863 89.6743 206.829 89.6554 206.799 89.6299C206.77 89.6044 206.747 89.5728 206.731 89.5374C206.579 89.2156 206.354 88.9336 206.075 88.7137C205.795 88.4938 205.468 88.342 205.119 88.2702C205.046 88.2614 204.978 88.2239 204.932 88.1659C204.886 88.1079 204.865 88.0341 204.873 87.9604C204.883 87.8857 204.922 87.8179 204.981 87.7708C205.04 87.7237 205.114 87.7009 205.19 87.707C205.633 87.7878 206.05 87.9739 206.407 88.2495C206.763 88.5252 207.048 88.8823 207.238 89.291C207.255 89.3237 207.265 89.3594 207.268 89.3961C207.27 89.4327 207.266 89.4696 207.254 89.5043C207.242 89.5391 207.223 89.5712 207.199 89.5987C207.174 89.6261 207.145 89.6484 207.111 89.6641C207.046 89.6984 206.971 89.706 206.9 89.6852Z" fill="#57534E"/>
<path d="M197.706 87.4254C197.671 87.4215 197.637 87.41 197.606 87.3918C197.576 87.3736 197.55 87.349 197.53 87.3198C197.484 87.2609 197.464 87.1864 197.473 87.1125C197.482 87.0386 197.52 86.9714 197.579 86.9255C197.931 86.6437 198.346 86.4506 198.788 86.3624C199.23 86.2742 199.687 86.2935 200.121 86.4187C200.192 86.4439 200.25 86.4962 200.282 86.5642C200.314 86.6322 200.318 86.7103 200.293 86.7812C200.268 86.8522 200.215 86.9102 200.147 86.9426C200.08 86.9749 200.001 86.9789 199.931 86.9537C199.587 86.8592 199.225 86.8482 198.876 86.9217C198.527 86.9952 198.201 87.151 197.924 87.3761C197.893 87.3996 197.858 87.4162 197.82 87.4247C197.783 87.4332 197.744 87.4334 197.706 87.4254Z" fill="#57534E"/>
<path d="M205.028 90.5863L203.95 90.0583C203.95 90.0583 204.373 91.051 205.028 90.5863Z" fill="#57534E"/>
<path opacity="0.2" d="M219.847 120.387C219.286 123.66 218.945 126.966 218.826 130.285C216.172 126.603 213.159 119.929 213.328 116.81L219.847 120.387Z" fill="#57534E"/>
<path d="M203.429 130.44L201.036 127.223L196.636 132.108C196.636 132.108 199.565 134.748 202.634 135.016L203.077 134.27C203.43 133.703 203.646 133.061 203.707 132.396C203.768 131.731 203.673 131.061 203.429 130.44Z" fill="#7F3E3B"/>
<path d="M196.622 126.997L195.319 128.891C195.036 129.305 194.927 129.815 195.016 130.309C195.106 130.804 195.387 131.243 195.798 131.531L196.636 132.115L201.036 127.23L198.952 126.293C198.542 126.122 198.086 126.099 197.661 126.227C197.235 126.356 196.868 126.628 196.622 126.997Z" fill="#7F3E3B"/>
<path d="M223.212 125.857C222.903 123.888 222.477 121.939 221.938 120.021C221.67 119.07 221.381 118.134 221.072 117.205C220.917 116.733 220.762 116.268 220.593 115.797C220.424 115.325 220.248 114.895 220.023 114.346C219.616 113.266 218.796 112.392 217.745 111.916C216.693 111.44 215.495 111.401 214.415 111.808C213.335 112.215 212.461 113.035 211.985 114.086C211.509 115.138 211.47 116.336 211.877 117.416L211.934 117.571L212.328 118.718L212.736 119.936C213.004 120.753 213.257 121.576 213.49 122.407C213.968 124.054 214.37 125.709 214.707 127.335C215.027 128.902 215.234 130.49 215.327 132.087C215.358 132.853 215.334 133.62 215.257 134.382H215.144C213.881 134.174 212.636 133.868 211.42 133.467C210.11 133.066 208.78 132.58 207.442 132.059C206.105 131.538 204.746 131.01 203.429 130.503H203.345C202.866 130.322 202.338 130.315 201.854 130.483C201.37 130.652 200.961 130.985 200.699 131.425C200.436 131.865 200.336 132.383 200.417 132.889C200.498 133.395 200.754 133.856 201.141 134.192C202.321 135.195 203.552 136.135 204.83 137.008C206.12 137.898 207.454 138.72 208.829 139.472C210.307 140.291 211.864 140.959 213.475 141.464C214.474 141.774 215.508 141.954 216.552 141.999C217.276 142.031 218 141.95 218.699 141.76C219.695 141.493 220.608 140.98 221.353 140.268C221.671 139.952 221.926 139.579 222.107 139.169L222.17 139.036C223.108 136.84 223.603 134.481 223.627 132.094C223.677 130.007 223.538 127.919 223.212 125.857Z" fill="#7F3E3B"/>
<path d="M199.163 95.7044C201.212 95.5558 203.27 95.5746 205.316 95.7607C204.683 96.8801 203.62 97.7601 201.303 97.6052C198.987 97.4503 199.163 95.7044 199.163 95.7044Z" fill="#57534E"/>
<path d="M202.472 96.7604C201.594 96.66 200.706 96.8012 199.902 97.1687C200.324 97.438 200.811 97.5866 201.31 97.5982C202.185 97.6999 203.071 97.5611 203.873 97.1969C203.454 96.928 202.97 96.7772 202.472 96.7604Z" fill="#630F0F"/>
<path d="M199.367 95.6833C199.411 95.8363 199.495 95.9744 199.612 96.0825C199.729 96.1905 199.873 96.2643 200.029 96.2958C201.368 96.3785 202.712 96.3644 204.049 96.2535C204.254 96.2593 204.457 96.2171 204.643 96.1304C204.829 96.0436 204.992 95.9146 205.119 95.7537C203.205 95.6029 201.284 95.5794 199.367 95.6833Z" fill="white"/>
<path d="M198.748 110.277C198.685 110.276 198.624 110.251 198.579 110.207C198.558 110.184 198.542 110.158 198.53 110.129C198.523 110.102 198.523 110.073 198.53 110.045C198.529 109.983 198.552 109.923 198.593 109.876C198.616 109.855 198.642 109.839 198.67 109.827C198.727 109.806 198.79 109.806 198.846 109.827C198.875 109.839 198.901 109.855 198.924 109.876C198.947 109.897 198.963 109.924 198.973 109.953C198.98 109.983 198.98 110.015 198.973 110.045C198.979 110.073 198.979 110.102 198.973 110.129C198.963 110.159 198.947 110.186 198.924 110.207C198.901 110.23 198.874 110.249 198.843 110.261C198.813 110.273 198.78 110.279 198.748 110.277Z" fill="white"/>
<path d="M196.84 122.773C196.84 122.711 196.864 122.651 196.908 122.606C196.951 122.562 197.01 122.536 197.072 122.534C197.134 122.534 197.193 122.558 197.237 122.602C197.28 122.645 197.305 122.705 197.305 122.766C197.305 122.828 197.28 122.888 197.237 122.933C197.194 122.978 197.135 123.004 197.072 123.006C197.011 123.006 196.952 122.981 196.908 122.938C196.865 122.894 196.84 122.835 196.84 122.773ZM198.079 122.675C198.072 122.645 198.071 122.613 198.076 122.583C198.08 122.552 198.091 122.523 198.108 122.497C198.124 122.471 198.146 122.448 198.171 122.43C198.196 122.412 198.225 122.4 198.255 122.393C198.316 122.382 198.378 122.394 198.43 122.426C198.482 122.459 198.52 122.51 198.537 122.569C198.547 122.63 198.535 122.694 198.501 122.746C198.467 122.798 198.414 122.836 198.354 122.851H198.248C198.201 122.847 198.156 122.828 198.119 122.798C198.083 122.768 198.057 122.727 198.044 122.682L198.079 122.675ZM195.777 122.801C195.748 122.792 195.721 122.777 195.697 122.757C195.674 122.736 195.655 122.712 195.641 122.684C195.628 122.657 195.619 122.627 195.617 122.596C195.615 122.566 195.619 122.535 195.629 122.506C195.639 122.476 195.654 122.448 195.675 122.424C195.695 122.4 195.72 122.381 195.749 122.367C195.777 122.353 195.808 122.345 195.839 122.344C195.871 122.342 195.902 122.347 195.932 122.358C195.99 122.379 196.037 122.421 196.063 122.477C196.09 122.532 196.093 122.596 196.073 122.654C196.057 122.699 196.028 122.74 195.989 122.768C195.95 122.797 195.903 122.814 195.854 122.815L195.777 122.801ZM199.297 122.33C199.274 122.273 199.274 122.209 199.298 122.152C199.322 122.095 199.367 122.05 199.424 122.027C199.481 122.004 199.545 122.004 199.601 122.028C199.658 122.052 199.703 122.097 199.726 122.154C199.75 122.21 199.751 122.273 199.728 122.33C199.706 122.386 199.662 122.432 199.607 122.456H199.515C199.462 122.471 199.405 122.467 199.354 122.446C199.302 122.424 199.26 122.386 199.234 122.337L199.297 122.33ZM194.672 122.09C194.65 122.069 194.632 122.043 194.621 122.015C194.609 121.986 194.603 121.956 194.603 121.925C194.603 121.894 194.609 121.864 194.621 121.835C194.632 121.807 194.65 121.781 194.672 121.759C194.693 121.738 194.719 121.72 194.747 121.708C194.776 121.696 194.806 121.69 194.837 121.69C194.868 121.69 194.898 121.696 194.927 121.708C194.955 121.72 194.981 121.738 195.003 121.759C195.025 121.781 195.044 121.806 195.056 121.835C195.069 121.863 195.075 121.894 195.075 121.925C195.075 121.956 195.069 121.987 195.056 122.015C195.044 122.044 195.025 122.069 195.003 122.09C194.983 122.113 194.958 122.132 194.93 122.144C194.902 122.156 194.871 122.162 194.841 122.161C194.797 122.172 194.751 122.169 194.71 122.153C194.668 122.137 194.632 122.107 194.608 122.069L194.672 122.09ZM200.416 121.788C200.4 121.762 200.389 121.733 200.384 121.703C200.379 121.673 200.38 121.642 200.387 121.613C200.394 121.583 200.408 121.555 200.426 121.531C200.444 121.506 200.467 121.486 200.494 121.471C200.519 121.454 200.548 121.443 200.578 121.438C200.608 121.433 200.639 121.434 200.669 121.442C200.698 121.449 200.726 121.462 200.751 121.48C200.775 121.499 200.795 121.522 200.811 121.548C200.827 121.574 200.838 121.603 200.843 121.633C200.848 121.663 200.847 121.694 200.84 121.723C200.832 121.753 200.819 121.781 200.801 121.805C200.783 121.829 200.76 121.85 200.733 121.865C200.697 121.887 200.656 121.899 200.613 121.9C200.566 121.914 200.514 121.912 200.468 121.892C200.422 121.873 200.384 121.839 200.36 121.795L200.416 121.788ZM201.444 121.084C201.407 121.034 201.39 120.971 201.398 120.91C201.406 120.848 201.438 120.792 201.486 120.753C201.51 120.734 201.538 120.719 201.567 120.711C201.596 120.703 201.627 120.7 201.657 120.704C201.688 120.708 201.717 120.718 201.743 120.734C201.769 120.75 201.792 120.77 201.81 120.795C201.848 120.843 201.866 120.904 201.859 120.964C201.852 121.025 201.822 121.08 201.775 121.119C201.733 121.152 201.681 121.169 201.627 121.168C201.584 121.182 201.539 121.183 201.495 121.172C201.451 121.161 201.412 121.137 201.381 121.105L201.444 121.084ZM193.954 120.957C193.928 120.907 193.921 120.85 193.934 120.796C193.947 120.742 193.979 120.694 194.024 120.661C194.053 120.65 194.083 120.644 194.114 120.645C194.145 120.646 194.175 120.652 194.203 120.665C194.232 120.677 194.257 120.695 194.278 120.717C194.299 120.74 194.316 120.766 194.327 120.795C194.348 120.853 194.346 120.917 194.321 120.973C194.296 121.03 194.25 121.074 194.193 121.098H194.109C194.065 121.1 194.021 121.09 193.983 121.068C193.944 121.047 193.912 121.016 193.89 120.978L193.954 120.957ZM202.402 120.253C202.359 120.208 202.335 120.149 202.335 120.087C202.335 120.026 202.359 119.967 202.402 119.922C202.446 119.879 202.505 119.856 202.567 119.856C202.629 119.856 202.688 119.879 202.733 119.922C202.754 119.944 202.772 119.969 202.784 119.998C202.796 120.026 202.802 120.057 202.802 120.087C202.802 120.118 202.796 120.149 202.784 120.177C202.772 120.206 202.754 120.231 202.733 120.253C202.711 120.274 202.686 120.29 202.658 120.301C202.63 120.312 202.6 120.317 202.571 120.316C202.533 120.335 202.491 120.344 202.449 120.341C202.407 120.339 202.366 120.325 202.331 120.302L202.402 120.253ZM193.665 119.662C193.659 119.599 193.678 119.537 193.717 119.488C193.757 119.439 193.814 119.408 193.876 119.401C193.937 119.397 193.998 119.417 194.045 119.456C194.092 119.495 194.123 119.551 194.13 119.612C194.134 119.643 194.131 119.674 194.122 119.704C194.114 119.734 194.099 119.761 194.079 119.785C194.059 119.809 194.035 119.828 194.007 119.842C193.98 119.856 193.949 119.864 193.918 119.866C193.887 119.88 193.853 119.888 193.819 119.888C193.785 119.887 193.751 119.88 193.72 119.865C193.689 119.85 193.662 119.828 193.64 119.802C193.618 119.775 193.603 119.744 193.595 119.711L193.665 119.662ZM203.289 119.38C203.267 119.358 203.249 119.333 203.237 119.304C203.226 119.276 203.219 119.245 203.219 119.215C203.219 119.184 203.226 119.153 203.237 119.125C203.249 119.096 203.267 119.071 203.289 119.049C203.31 119.027 203.336 119.01 203.364 118.998C203.393 118.986 203.423 118.98 203.454 118.98C203.485 118.98 203.515 118.986 203.544 118.998C203.572 119.01 203.598 119.027 203.62 119.049C203.641 119.071 203.659 119.096 203.671 119.125C203.683 119.153 203.689 119.184 203.689 119.215C203.689 119.245 203.683 119.276 203.671 119.304C203.659 119.333 203.641 119.358 203.62 119.38C203.598 119.403 203.572 119.422 203.543 119.434C203.514 119.446 203.482 119.452 203.451 119.45C203.413 119.466 203.372 119.473 203.332 119.469C203.291 119.465 203.252 119.452 203.218 119.429L203.289 119.38ZM193.883 118.627C193.823 118.62 193.768 118.589 193.729 118.542C193.691 118.494 193.673 118.434 193.679 118.373C193.681 118.342 193.689 118.312 193.703 118.284C193.717 118.257 193.736 118.232 193.76 118.212C193.784 118.193 193.811 118.178 193.841 118.169C193.871 118.161 193.902 118.158 193.933 118.162C193.993 118.169 194.048 118.2 194.086 118.247C194.125 118.294 194.143 118.355 194.137 118.415C194.131 118.473 194.105 118.527 194.062 118.566C194.019 118.605 193.962 118.627 193.904 118.627H193.883ZM204.133 118.458C204.112 118.437 204.094 118.412 204.083 118.384C204.071 118.356 204.065 118.326 204.065 118.296C204.065 118.266 204.071 118.236 204.083 118.208C204.094 118.18 204.112 118.155 204.133 118.134C204.178 118.091 204.237 118.067 204.299 118.067C204.361 118.067 204.42 118.091 204.464 118.134C204.486 118.155 204.504 118.181 204.516 118.21C204.527 118.238 204.534 118.269 204.534 118.299C204.534 118.33 204.527 118.361 204.516 118.389C204.504 118.417 204.486 118.443 204.464 118.465C204.444 118.492 204.417 118.514 204.387 118.529C204.356 118.543 204.322 118.55 204.288 118.549C204.251 118.565 204.209 118.569 204.169 118.561C204.13 118.554 204.093 118.535 204.063 118.507L204.133 118.458ZM204.943 117.514C204.919 117.495 204.898 117.471 204.883 117.444C204.868 117.417 204.859 117.387 204.856 117.356C204.852 117.325 204.855 117.294 204.864 117.265C204.873 117.235 204.888 117.207 204.908 117.183C204.929 117.162 204.955 117.144 204.984 117.132C205.012 117.12 205.043 117.114 205.073 117.114C205.104 117.114 205.135 117.12 205.163 117.132C205.191 117.144 205.217 117.162 205.239 117.183C205.261 117.205 205.278 117.231 205.29 117.259C205.302 117.288 205.308 117.318 205.308 117.349C205.308 117.38 205.302 117.41 205.29 117.439C205.278 117.467 205.261 117.493 205.239 117.514C205.218 117.541 205.191 117.562 205.16 117.577C205.13 117.591 205.097 117.599 205.063 117.599C205.03 117.607 204.997 117.609 204.964 117.603C204.931 117.597 204.9 117.583 204.873 117.564L204.943 117.514ZM194.024 117.444C193.994 117.437 193.966 117.425 193.941 117.407C193.916 117.389 193.894 117.366 193.879 117.34C193.863 117.313 193.853 117.284 193.848 117.253C193.844 117.223 193.847 117.192 193.855 117.162C193.862 117.132 193.874 117.104 193.892 117.079C193.91 117.054 193.933 117.033 193.959 117.017C193.986 117.001 194.015 116.991 194.046 116.987C194.076 116.983 194.107 116.985 194.137 116.993C194.196 117.008 194.248 117.046 194.279 117.099C194.311 117.152 194.321 117.215 194.306 117.275C194.293 117.325 194.264 117.37 194.223 117.402C194.182 117.434 194.132 117.451 194.08 117.451H194.024V117.444ZM205.689 116.606C205.647 116.562 205.623 116.502 205.623 116.441C205.623 116.379 205.647 116.32 205.689 116.275C205.729 116.228 205.786 116.197 205.848 116.191C205.909 116.184 205.971 116.202 206.02 116.24C206.042 116.262 206.06 116.287 206.071 116.316C206.083 116.344 206.089 116.375 206.089 116.406C206.089 116.436 206.083 116.467 206.071 116.495C206.06 116.524 206.042 116.549 206.02 116.571C205.999 116.597 205.972 116.619 205.942 116.633C205.911 116.648 205.878 116.655 205.844 116.655C205.812 116.661 205.779 116.659 205.747 116.65C205.716 116.642 205.686 116.627 205.661 116.606H205.689ZM194.369 116.247C194.34 116.238 194.313 116.222 194.29 116.202C194.267 116.182 194.248 116.157 194.235 116.13C194.222 116.102 194.214 116.072 194.213 116.041C194.212 116.011 194.217 115.98 194.228 115.951C194.238 115.922 194.254 115.895 194.275 115.872C194.296 115.849 194.321 115.83 194.35 115.817C194.378 115.804 194.409 115.796 194.44 115.795C194.471 115.794 194.502 115.8 194.531 115.811C194.56 115.822 194.586 115.838 194.608 115.859C194.631 115.88 194.649 115.906 194.661 115.934C194.674 115.962 194.68 115.993 194.681 116.023C194.682 116.054 194.676 116.085 194.665 116.113C194.648 116.157 194.618 116.195 194.579 116.221C194.54 116.248 194.494 116.262 194.446 116.261C194.411 116.271 194.373 116.265 194.341 116.247H194.369ZM206.478 115.642C206.456 115.62 206.438 115.594 206.427 115.566C206.415 115.538 206.409 115.507 206.409 115.476C206.409 115.445 206.415 115.415 206.427 115.387C206.438 115.358 206.456 115.332 206.478 115.311C206.518 115.263 206.574 115.233 206.636 115.226C206.698 115.22 206.76 115.237 206.809 115.276C206.831 115.297 206.848 115.323 206.86 115.351C206.872 115.38 206.878 115.41 206.878 115.441C206.878 115.472 206.872 115.502 206.86 115.531C206.848 115.559 206.831 115.585 206.809 115.607C206.788 115.633 206.761 115.654 206.73 115.669C206.7 115.683 206.666 115.691 206.633 115.691C206.6 115.697 206.567 115.696 206.536 115.687C206.504 115.679 206.474 115.663 206.45 115.642H206.478ZM194.841 115.1C194.812 115.087 194.786 115.068 194.765 115.045C194.744 115.022 194.728 114.994 194.718 114.965C194.708 114.935 194.704 114.903 194.707 114.872C194.71 114.841 194.72 114.81 194.735 114.783C194.762 114.728 194.81 114.686 194.868 114.666C194.926 114.646 194.99 114.65 195.045 114.677C195.1 114.706 195.142 114.755 195.162 114.814C195.182 114.873 195.178 114.938 195.15 114.994C195.129 115.032 195.099 115.063 195.062 115.086C195.025 115.108 194.982 115.12 194.939 115.121C194.896 115.126 194.852 115.119 194.813 115.1H194.841ZM207.273 114.684C207.251 114.663 207.234 114.637 207.222 114.608C207.21 114.58 207.204 114.55 207.204 114.519C207.204 114.488 207.21 114.458 207.222 114.429C207.234 114.401 207.251 114.375 207.273 114.353C207.295 114.331 207.321 114.314 207.349 114.302C207.377 114.29 207.408 114.284 207.439 114.284C207.47 114.284 207.5 114.29 207.528 114.302C207.557 114.314 207.583 114.331 207.604 114.353C207.626 114.375 207.644 114.401 207.655 114.429C207.667 114.458 207.673 114.488 207.673 114.519C207.673 114.55 207.667 114.58 207.655 114.608C207.644 114.637 207.626 114.663 207.604 114.684C207.582 114.711 207.554 114.732 207.522 114.747C207.49 114.761 207.456 114.769 207.421 114.769C207.388 114.768 207.354 114.76 207.324 114.745C207.294 114.731 207.267 114.71 207.245 114.684H207.273ZM195.418 113.98C195.367 113.946 195.331 113.893 195.316 113.833C195.302 113.773 195.311 113.71 195.341 113.656C195.375 113.605 195.427 113.569 195.487 113.555C195.547 113.54 195.61 113.549 195.664 113.579C195.715 113.613 195.752 113.666 195.766 113.726C195.78 113.786 195.772 113.849 195.742 113.903C195.721 113.937 195.692 113.965 195.658 113.985C195.623 114.005 195.584 114.015 195.545 114.015C195.493 114.025 195.439 114.02 195.39 114.001L195.418 113.98ZM208.09 113.727C208.068 113.705 208.051 113.679 208.039 113.651C208.027 113.623 208.021 113.592 208.021 113.561C208.021 113.531 208.027 113.5 208.039 113.472C208.051 113.443 208.068 113.418 208.09 113.396C208.111 113.373 208.137 113.355 208.165 113.342C208.194 113.33 208.224 113.324 208.255 113.324C208.286 113.324 208.317 113.33 208.346 113.342C208.374 113.355 208.4 113.373 208.421 113.396C208.463 113.439 208.487 113.497 208.487 113.558C208.487 113.618 208.463 113.676 208.421 113.72C208.399 113.745 208.372 113.765 208.341 113.778C208.311 113.792 208.278 113.798 208.245 113.797C208.213 113.801 208.18 113.799 208.148 113.791C208.117 113.782 208.088 113.768 208.062 113.748L208.09 113.727ZM196.122 112.931C196.097 112.914 196.075 112.891 196.059 112.865C196.043 112.839 196.032 112.81 196.028 112.78C196.023 112.75 196.025 112.719 196.032 112.689C196.04 112.659 196.054 112.632 196.073 112.607C196.11 112.558 196.166 112.525 196.228 112.515C196.29 112.506 196.353 112.522 196.404 112.558C196.451 112.596 196.483 112.65 196.492 112.71C196.501 112.771 196.487 112.832 196.453 112.882C196.431 112.912 196.402 112.936 196.369 112.953C196.336 112.97 196.3 112.98 196.263 112.981C196.23 112.992 196.195 112.995 196.161 112.99C196.127 112.985 196.094 112.972 196.066 112.952L196.122 112.931ZM208.97 112.819C208.948 112.797 208.931 112.771 208.919 112.743C208.907 112.714 208.901 112.684 208.901 112.653C208.901 112.622 208.907 112.592 208.919 112.564C208.931 112.535 208.948 112.509 208.97 112.488C208.992 112.466 209.017 112.448 209.046 112.437C209.074 112.425 209.105 112.419 209.135 112.419C209.166 112.419 209.197 112.425 209.225 112.437C209.253 112.448 209.279 112.466 209.301 112.488C209.323 112.509 209.34 112.535 209.352 112.564C209.364 112.592 209.37 112.622 209.37 112.653C209.37 112.684 209.364 112.714 209.352 112.743C209.34 112.771 209.323 112.797 209.301 112.819C209.257 112.86 209.199 112.883 209.139 112.882C209.101 112.893 209.06 112.895 209.021 112.888C208.982 112.88 208.945 112.864 208.914 112.84L208.97 112.819ZM209.871 111.96C209.828 111.915 209.805 111.856 209.805 111.794C209.805 111.733 209.828 111.673 209.871 111.629C209.893 111.607 209.918 111.59 209.947 111.578C209.975 111.566 210.006 111.56 210.037 111.56C210.067 111.56 210.098 111.566 210.126 111.578C210.155 111.59 210.18 111.607 210.202 111.629C210.224 111.651 210.241 111.676 210.253 111.705C210.265 111.733 210.271 111.764 210.271 111.794C210.271 111.825 210.265 111.856 210.253 111.884C210.241 111.912 210.224 111.938 210.202 111.96C210.158 111.996 210.104 112.016 210.047 112.016C210.008 112.029 209.967 112.033 209.927 112.027C209.886 112.021 209.848 112.005 209.815 111.981L209.871 111.96ZM196.882 111.96C196.86 111.938 196.843 111.912 196.831 111.884C196.819 111.856 196.813 111.825 196.813 111.794C196.813 111.764 196.819 111.733 196.831 111.705C196.843 111.676 196.86 111.651 196.882 111.629C196.904 111.607 196.93 111.59 196.958 111.578C196.986 111.566 197.017 111.56 197.048 111.56C197.079 111.56 197.109 111.566 197.137 111.578C197.166 111.59 197.192 111.607 197.213 111.629C197.256 111.673 197.28 111.733 197.28 111.794C197.28 111.856 197.256 111.915 197.213 111.96C197.192 111.986 197.165 112.007 197.135 112.022C197.104 112.037 197.071 112.044 197.037 112.044C197.001 112.047 196.965 112.042 196.931 112.03C196.897 112.018 196.866 111.999 196.84 111.974L196.882 111.96ZM210.829 111.171C210.811 111.146 210.798 111.118 210.792 111.088C210.785 111.059 210.784 111.028 210.79 110.998C210.795 110.968 210.806 110.939 210.822 110.913C210.839 110.887 210.86 110.865 210.885 110.847C210.934 110.811 210.996 110.796 211.057 110.805C211.118 110.815 211.172 110.847 211.209 110.897C211.245 110.947 211.261 111.01 211.251 111.072C211.242 111.134 211.209 111.19 211.159 111.228C211.118 111.255 211.069 111.27 211.019 111.27C210.974 111.28 210.927 111.278 210.883 111.263C210.84 111.248 210.801 111.221 210.772 111.185L210.829 111.171ZM197.72 111.038C197.698 111.016 197.681 110.99 197.669 110.962C197.657 110.933 197.651 110.903 197.651 110.872C197.651 110.841 197.657 110.811 197.669 110.782C197.681 110.754 197.698 110.728 197.72 110.707C197.742 110.685 197.767 110.667 197.796 110.655C197.824 110.644 197.855 110.637 197.885 110.637C197.916 110.637 197.947 110.644 197.975 110.655C198.004 110.667 198.029 110.685 198.051 110.707C198.073 110.728 198.09 110.754 198.102 110.782C198.114 110.811 198.12 110.841 198.12 110.872C198.12 110.903 198.114 110.933 198.102 110.962C198.09 110.99 198.073 111.016 198.051 111.038C198.006 111.078 197.949 111.1 197.889 111.101C197.85 111.111 197.81 111.112 197.77 111.103C197.731 111.095 197.695 111.077 197.664 111.052L197.72 111.038ZM211.863 110.481C211.847 110.455 211.836 110.425 211.832 110.394C211.827 110.363 211.829 110.332 211.837 110.301C211.845 110.271 211.859 110.243 211.878 110.218C211.897 110.193 211.921 110.173 211.948 110.158C211.975 110.143 212.004 110.133 212.035 110.13C212.065 110.126 212.096 110.129 212.125 110.137C212.155 110.146 212.182 110.16 212.206 110.179C212.23 110.198 212.25 110.222 212.265 110.249C212.295 110.302 212.304 110.366 212.288 110.425C212.272 110.484 212.233 110.535 212.18 110.566C212.141 110.576 212.1 110.576 212.061 110.566C212.016 110.581 211.968 110.583 211.923 110.57C211.878 110.557 211.837 110.531 211.807 110.495L211.863 110.481Z" fill="white"/>
<path d="M213.145 110.052C213.117 110.059 213.088 110.059 213.06 110.052C213.032 110.04 213.006 110.023 212.983 110.003C212.96 109.98 212.941 109.954 212.926 109.925C212.922 109.895 212.922 109.864 212.926 109.834C212.928 109.773 212.954 109.715 212.997 109.672C213.017 109.648 213.044 109.63 213.074 109.622C213.117 109.606 213.163 109.601 213.208 109.61C213.253 109.619 213.295 109.64 213.328 109.672C213.369 109.716 213.392 109.774 213.391 109.834C213.398 109.864 213.398 109.895 213.391 109.925C213.379 109.953 213.362 109.98 213.342 110.003C213.314 110.024 213.282 110.039 213.248 110.048C213.214 110.056 213.179 110.058 213.145 110.052Z" fill="white"/>
<path d="M190.504 144.513C189.469 146.364 189.899 152.306 191.666 154.833C202.12 155.319 216.742 148.751 220.994 149.962C221.853 147.815 220.339 146.899 220.29 145.329C220.241 143.759 220.058 141.964 217.953 142.795C215.848 143.626 201.381 145.942 190.504 144.513Z" fill="#F43F5E"/>
<path opacity="0.5" d="M190.504 144.513C189.469 146.364 189.899 152.306 191.666 154.833C202.12 155.319 216.742 148.751 220.994 149.962C221.853 147.815 220.339 146.899 220.29 145.329C220.241 143.759 220.058 141.964 217.953 142.795C215.848 143.626 201.381 145.942 190.504 144.513Z" fill="white"/>
<path d="M182.809 1.21354C198.945 5.77546 210.814 22.6151 209.322 38.8142C208.357 49.2263 202.12 56.8295 193.503 59.7371C193.415 61.3202 193.831 62.8905 194.693 64.2215C194.693 64.2215 190.567 62.9332 189.096 60.8212C185.174 61.3414 181.186 61.0368 177.388 59.9271C161.246 55.3652 149.376 38.5255 150.876 22.3195C152.375 6.11338 166.667 -3.35542 182.809 1.21354Z" fill="#F43F5E"/>
<path opacity="0.7" d="M182.809 1.21354C198.945 5.77546 210.814 22.6151 209.322 38.8142C208.357 49.2263 202.12 56.8295 193.503 59.7371C193.415 61.3202 193.831 62.8905 194.693 64.2215C194.693 64.2215 190.567 62.9332 189.096 60.8212C185.174 61.3414 181.186 61.0368 177.388 59.9271C161.246 55.3652 149.376 38.5255 150.876 22.3195C152.375 6.11338 166.667 -3.35542 182.809 1.21354Z" fill="white"/>
<path d="M63.1434 27.1841C63.4894 25.6743 64.153 24.2555 65.0901 23.0222C66.0273 21.7888 67.2164 20.7693 68.5783 20.0315C67.8083 18.8801 67.4035 17.5233 67.4167 16.1383C67.4801 11.675 71.9434 8.12682 77.3783 8.20426C79.6905 8.22234 81.9397 8.96056 83.8129 10.3163C85.9741 5.63466 92.3242 3.88874 98.1041 6.4161C102.933 8.5281 105.848 12.9633 105.517 17.138C106.517 16.9687 107.532 16.9097 108.544 16.962C114.88 17.314 119.808 21.8267 119.548 27.0433C119.372 30.2183 117.302 32.9147 114.282 34.4635C116.394 38.4622 116.471 42.9819 114.127 46.4315C111.783 49.8811 107.791 51.4087 103.433 51.106C100.054 54.4078 94.5207 55.9777 88.7831 54.7809C87.6726 54.549 86.5861 54.2143 85.5376 53.7812C83.5453 56.3649 79.2932 56.3931 79.2932 56.3931C80.6349 55.1934 81.5864 53.6191 82.0247 51.8734C80.0542 50.5231 78.4367 48.7197 77.3079 46.6145C74.7665 46.6919 70.9719 46.0724 68.7825 43.9182C67.0225 42.1863 66.0861 39.3844 66.6705 37.5118C63.7841 34.6676 62.3761 30.9083 63.1434 27.1841Z" fill="#F43F5E"/>
<path opacity="0.2" d="M63.1434 27.1841C63.4894 25.6743 64.153 24.2555 65.0901 23.0222C66.0273 21.7888 67.2164 20.7693 68.5783 20.0315C67.8083 18.8801 67.4035 17.5233 67.4167 16.1383C67.4801 11.675 71.9434 8.12682 77.3783 8.20426C79.6905 8.22234 81.9397 8.96056 83.8129 10.3163C85.9741 5.63466 92.3242 3.88874 98.1041 6.4161C102.933 8.5281 105.848 12.9633 105.517 17.138C106.517 16.9687 107.532 16.9097 108.544 16.962C114.88 17.314 119.808 21.8267 119.548 27.0433C119.372 30.2183 117.302 32.9147 114.282 34.4635C116.394 38.4622 116.471 42.9819 114.127 46.4315C111.783 49.8811 107.791 51.4087 103.433 51.106C100.054 54.4078 94.5207 55.9777 88.7831 54.7809C87.6726 54.549 86.5861 54.2143 85.5376 53.7812C83.5453 56.3649 79.2932 56.3931 79.2932 56.3931C80.6349 55.1934 81.5864 53.6191 82.0247 51.8734C80.0542 50.5231 78.4367 48.7197 77.3079 46.6145C74.7665 46.6919 70.9719 46.0724 68.7825 43.9182C67.0225 42.1863 66.0861 39.3844 66.6705 37.5118C63.7841 34.6676 62.3761 30.9083 63.1434 27.1841Z" fill="#57534E"/>
<path d="M148.651 61.2295L148.503 60.5255C151.944 59.8249 155.332 58.8839 158.641 57.7095L158.887 58.3713C155.546 59.5621 152.126 60.5172 148.651 61.2295Z" fill="#F43F5E"/>
<path d="M140.555 62.6446L140.457 61.9406C141.794 61.7505 143.132 61.5463 144.413 61.3211L144.533 62.0251C143.245 62.2292 141.928 62.4545 140.555 62.6446Z" fill="#F43F5E"/>
<path d="M163.048 29.5214C162.978 28.3585 162.499 27.258 161.694 26.4152C160.89 25.5723 159.813 25.0416 158.655 24.9172C142.139 23.1924 119.02 27.0292 109.797 28.8174C108.636 29.0399 107.592 29.67 106.853 30.5941C106.115 31.5183 105.731 32.6758 105.771 33.858C106.101 44.77 108.939 51.9297 113.472 59.1316C113.911 59.8198 114.513 60.3896 115.223 60.791C115.934 61.1924 116.733 61.4131 117.549 61.4337C120.801 61.5252 124.004 61.4971 127.116 61.3703C128.742 63.6348 130.879 65.4846 133.353 66.77C133.055 64.8479 133.055 62.8912 133.353 60.9691C143.336 60.1031 152.059 58.2375 158.036 56.0411C158.767 55.7679 159.425 55.3279 159.956 54.7559C160.488 54.184 160.879 53.4959 161.098 52.7463C163.393 45.0587 163.421 35.3998 163.048 29.5214Z" fill="#F43F5E"/>
</svg>
