<svg width="32" height="25" viewBox="0 0 32 25" fill="none" xmlns="http://www.w3.org/2000/svg">
<path d="M2.40396 9.70128L1.20197 10.9032L0 9.70128L1.20197 8.49929L2.40396 9.70128ZM31.3015 23.3001C31.3015 24.239 30.5405 25 29.6017 25C28.6629 25 27.9018 24.239 27.9018 23.3001H31.3015ZM9.70126 19.4025L1.20197 10.9032L3.60594 8.49929L12.1052 16.9986L9.70126 19.4025ZM1.20197 8.49929L9.70126 0L12.1052 2.40397L3.60594 10.9032L1.20197 8.49929ZM2.40396 8.00142H19.4025V11.4011H2.40396V8.00142ZM31.3015 19.9004V23.3001H27.9018V19.9004H31.3015ZM19.4025 8.00142C25.9742 8.00142 31.3015 13.3288 31.3015 19.9004H27.9018C27.9018 15.2064 24.0965 11.4011 19.4025 11.4011V8.00142Z" fill="#F43F5E"/>
</svg>
