<svg width="44" height="51" viewBox="0 0 44 51" fill="none" xmlns="http://www.w3.org/2000/svg">
<path d="M31.5244 17.9603H28.3498V29.0714H24.3816V47.3254H19.6197V29.0714H15.6514V17.9603H12.4768V32.246H16.4451V50.5H27.5562V32.246H31.5244V17.9603Z" fill="#F43F5E"/>
<path d="M16.4451 6.05556C16.4451 9.11111 18.9451 11.6111 22.0006 11.6111C25.0562 11.6111 27.5562 9.11111 27.5562 6.05556C27.5562 3 25.0562 0.5 22.0006 0.5C18.9451 0.5 16.4451 3 16.4451 6.05556ZM24.3816 6.05556C24.3816 7.36508 23.3101 8.43651 22.0006 8.43651C20.6911 8.43651 19.6197 7.36508 19.6197 6.05556C19.6197 4.74603 20.6911 3.6746 22.0006 3.6746C23.3101 3.6746 24.3816 4.74603 24.3816 6.05556Z" fill="#F43F5E"/>
<path d="M2.95264 10.0238C2.95264 13.0794 5.45264 15.5794 8.50819 15.5794C11.5637 15.5794 14.0637 13.0794 14.0637 10.0238C14.0637 6.96825 11.5637 4.46825 8.50819 4.46825C5.45264 4.46825 2.95264 6.96825 2.95264 10.0238ZM10.8891 10.0238C10.8891 11.3333 9.81772 12.4048 8.50819 12.4048C7.19867 12.4048 6.12724 11.3333 6.12724 10.0238C6.12724 8.71429 7.19867 7.64286 8.50819 7.64286C9.81772 7.64286 10.8891 8.71429 10.8891 10.0238Z" fill="#F43F5E"/>
<path d="M40.2535 33.0397H36.2852V47.3254H29.936V50.5H39.4598V36.2143H43.4281V20.3413H40.2535V33.0397Z" fill="#F43F5E"/>
<path d="M29.936 10.0238C29.936 13.0794 32.436 15.5794 35.4916 15.5794C38.5471 15.5794 41.0471 13.0794 41.0471 10.0238C41.0471 6.96825 38.5471 4.46825 35.4916 4.46825C32.436 4.46825 29.936 6.96825 29.936 10.0238ZM35.4916 7.64286C36.8011 7.64286 37.8725 8.71429 37.8725 10.0238C37.8725 11.3333 36.8011 12.4048 35.4916 12.4048C34.1821 12.4048 33.1106 11.3333 33.1106 10.0238C33.1106 8.71429 34.1821 7.64286 35.4916 7.64286Z" fill="#F43F5E"/>
<path d="M7.71439 33.0397H3.74614V20.3413H0.571533V36.2143H4.53979V50.5H14.0636V47.3254H7.71439V33.0397Z" fill="#F43F5E"/>
</svg>
