<svg width="50" height="51" viewBox="0 0 50 51" fill="none" xmlns="http://www.w3.org/2000/svg">
<path d="M36.068 0.5L6.67097 29.8719L0 50.3536L20.545 43.4619L23.3425 40.6668C22.1087 40.4238 19.7385 39.9256 19.6718 39.9116L19.6268 39.9565L10.4173 30.5516L36.068 4.92282L45.3792 14.2261L39.4487 20.1515L39.9517 24.0718L49.8058 14.2261L36.068 0.5ZM35.1485 20.8225C33.7643 20.8225 33.5893 20.8332 33.4101 20.9292C33.0589 21.1174 33.0226 21.2646 32.8841 23.0539C32.815 23.9466 32.7346 24.706 32.7056 24.7415C32.6766 24.777 32.4379 24.8663 32.175 24.9399C31.4195 25.1512 30.7102 25.436 29.9357 25.8395C29.5414 26.0449 29.1872 26.2131 29.1486 26.2131C29.1099 26.2131 28.5708 25.7802 27.9508 25.2509C26.5587 24.0625 26.5194 24.0325 26.2863 23.9831C25.9521 23.9123 25.6737 24.1111 24.6065 25.1837C23.5588 26.2368 23.3905 26.4764 23.4619 26.8131C23.5099 27.0396 23.5474 27.0887 24.7291 28.4675C25.2589 29.0857 25.6923 29.6241 25.6923 29.664C25.6923 29.7038 25.5242 30.0587 25.3186 30.4527C24.9148 31.2264 24.6295 31.9352 24.418 32.69C24.3444 32.9527 24.2552 33.1914 24.2197 33.2204C24.1841 33.2494 23.4241 33.3295 22.5307 33.3985C20.7398 33.5369 20.5923 33.5734 20.4039 33.9243C20.3078 34.1033 20.2971 34.2782 20.2971 35.6612C20.2971 37.0443 20.3078 37.2191 20.4039 37.3982C20.5918 37.7481 20.7419 37.7854 22.5016 37.9205C23.379 37.9879 24.1365 38.0548 24.185 38.0691C24.2394 38.0851 24.326 38.2888 24.4116 38.6025C24.6202 39.3662 24.9035 40.0741 25.3186 40.8696C25.5242 41.2635 25.6923 41.6186 25.6923 41.6585C25.6923 41.6984 25.2784 42.2141 24.7726 42.8044C23.3134 44.5073 23.3195 44.4971 23.5408 44.954C23.7159 45.3153 25.6504 47.2142 25.939 47.3081C26.3064 47.4276 26.4781 47.3236 27.8511 46.15L29.1275 45.0591L29.8321 45.429C30.6795 45.8741 31.5375 46.2204 32.2112 46.3892C32.5454 46.473 32.7179 46.5449 32.7372 46.6086C32.7529 46.6607 32.8206 47.4207 32.8878 48.2974C33.0226 50.0556 33.0599 50.2056 33.4101 50.3932C33.5893 50.4892 33.7643 50.5 35.1485 50.5C36.5328 50.5 36.7078 50.4892 36.8869 50.3932C37.2371 50.2056 37.2745 50.0556 37.4093 48.2974C37.4765 47.4207 37.5441 46.662 37.5594 46.6113C37.5779 46.5501 37.7872 46.4655 38.1808 46.3601C38.9156 46.1634 39.5665 45.8988 40.4129 45.4529C40.7717 45.2639 41.0998 45.1094 41.1421 45.1094C41.1844 45.1094 41.7262 45.5425 42.3462 46.0718C42.9662 46.601 43.5596 47.1006 43.6648 47.182C43.9366 47.3923 44.2805 47.3915 44.586 47.1801C44.9752 46.9106 46.6844 45.1446 46.7821 44.911C46.9484 44.5134 46.8873 44.406 45.7008 43.0153C45.098 42.3087 44.6048 41.6951 44.6048 41.6517C44.6048 41.6083 44.7595 41.2796 44.9486 40.9211C45.3948 40.0754 45.6597 39.4251 45.8566 38.6909C45.962 38.2976 46.0468 38.0882 46.1079 38.0698C46.1587 38.0545 46.918 37.9872 47.7955 37.92C49.5552 37.7854 49.7053 37.7481 49.8931 37.3982C49.9892 37.2191 50 37.0443 50 35.6612C50 34.2782 49.9892 34.1033 49.8931 33.9243C49.7047 33.5732 49.5577 33.5369 47.7666 33.3995C46.6889 33.3168 46.1164 33.2502 46.0659 33.2016C46.024 33.1613 45.939 32.9305 45.8771 32.689C45.708 32.0293 45.3955 31.2514 44.9787 30.4527C44.7731 30.0587 44.6048 29.7024 44.6048 29.6608C44.6048 29.6192 45.0848 29.025 45.6715 28.3404C46.8202 26.9998 46.925 26.8259 46.8056 26.4594C46.7123 26.1728 44.811 24.2382 44.4522 24.0647C44.0212 23.8562 43.9407 23.8998 42.5076 25.1177C41.7989 25.7201 41.1874 26.2131 41.1487 26.2131C41.1101 26.2131 40.7547 26.0442 40.3589 25.8378C39.584 25.4337 38.6799 25.0746 38.0057 24.9032C37.7479 24.8377 37.5747 24.7618 37.5587 24.7075C37.5443 24.6588 37.4774 23.9018 37.41 23.0251C37.2748 21.2669 37.2372 21.1169 36.8869 20.9292C36.7078 20.8332 36.5328 20.8225 35.1485 20.8225ZM35.2962 29.1804C36.68 29.2088 38.0547 29.6801 39.2039 30.5988C41.2232 32.213 42.0685 34.8103 41.4109 37.3801C41.2433 38.0349 40.6825 39.1318 40.2212 39.7068C39.1731 41.0132 37.685 41.8523 35.9897 42.0932C35.6186 42.1459 34.7206 42.1639 34.5105 42.1227C34.4627 42.1134 34.2278 42.0739 33.9884 42.035C33.1763 41.9031 32.2621 41.5332 31.5228 41.0372C29.4997 39.6799 28.3738 37.1908 28.7111 34.8207C28.9327 33.2634 29.7387 31.7568 30.8708 30.7832C32.148 29.685 33.7279 29.1483 35.2962 29.1804ZM8.73829 33.6384L16.5994 41.4929L9.08553 44.03L6.27458 41.2216L8.73829 33.6384Z" fill="#F43F5E"/>
</svg>
