<svg width="40" height="40" viewBox="0 0 40 40" fill="none" xmlns="http://www.w3.org/2000/svg">
<rect x="1" y="1" width="38" height="38" rx="4" stroke="#F43F5E" stroke-width="2"/>
<path d="M14.4684 27.5C14.0101 27.5 13.6176 27.3369 13.2909 27.0108C12.9648 26.6842 12.8018 26.2917 12.8018 25.8333V14.1667C12.8018 13.7083 12.9648 13.3158 13.2909 12.9892C13.6176 12.6631 14.0101 12.5 14.4684 12.5H19.4684C19.7045 12.5 19.9026 12.5797 20.0626 12.7392C20.222 12.8992 20.3018 13.0972 20.3018 13.3333C20.3018 13.5694 20.222 13.7672 20.0626 13.9267C19.9026 14.0867 19.7045 14.1667 19.4684 14.1667H14.4684V25.8333H19.4684C19.7045 25.8333 19.9026 25.9133 20.0626 26.0733C20.222 26.2328 20.3018 26.4306 20.3018 26.6667C20.3018 26.9028 20.222 27.1006 20.0626 27.26C19.9026 27.42 19.7045 27.5 19.4684 27.5H14.4684Z" fill="#F43F5E"/>
<path d="M22.1561 23.26C22.1561 23.4894 22.0797 23.6944 21.9269 23.875C21.7741 24.0278 21.59 24.1144 21.3744 24.135C21.1594 24.1561 20.9616 24.0764 20.7811 23.8958L17.7811 20.8958C17.6978 20.8125 17.6386 20.7222 17.6036 20.625C17.5691 20.5278 17.5519 20.4236 17.5519 20.3125C17.5519 20.2014 17.5691 20.0972 17.6036 20C17.6386 19.9028 17.6978 19.8125 17.7811 19.7292L20.7811 16.7292C20.9339 16.5764 21.1247 16.5 21.3536 16.5C21.583 16.5 21.7741 16.5833 21.9269 16.75C22.0936 16.9167 22.1769 17.1147 22.1769 17.3442C22.1769 17.5731 22.0936 17.7708 21.9269 17.9375L20.3853 19.4792H26.3644C26.6005 19.4792 26.7983 19.5589 26.9578 19.7183C27.1178 19.8783 27.1978 20.0764 27.1978 20.3125C27.1978 20.5486 27.1178 20.7464 26.9578 20.9058C26.7983 21.0658 26.6005 21.1458 26.3644 21.1458H20.3853L21.9269 22.6875C22.0797 22.8403 22.1561 23.0311 22.1561 23.26Z" fill="#F43F5E"/>
</svg>
