<svg width="40" height="40" viewBox="0 0 40 40" fill="none" xmlns="http://www.w3.org/2000/svg">
<rect x="1" y="1" width="38" height="38" rx="4" stroke="#F43F5E" stroke-width="2"/>
<path d="M22.9481 23.5625C22.7953 23.3819 22.7189 23.1769 22.7189 22.9475C22.7189 22.7186 22.7953 22.5278 22.9481 22.375L24.4897 20.8333H18.5106C18.2745 20.8333 18.0767 20.7533 17.9172 20.5933C17.7572 20.4339 17.6772 20.2361 17.6772 20C17.6772 19.7639 17.7572 19.5658 17.9172 19.4058C18.0767 19.2464 18.2745 19.1667 18.5106 19.1667H24.4897L22.9481 17.625C22.7814 17.4583 22.6981 17.2606 22.6981 17.0317C22.6981 16.8022 22.7814 16.6042 22.9481 16.4375C23.1009 16.2708 23.292 16.1875 23.5214 16.1875C23.7503 16.1875 23.9411 16.2639 24.0939 16.4167L27.0939 19.4167C27.1772 19.5 27.2364 19.5903 27.2714 19.6875C27.3059 19.7847 27.3231 19.8889 27.3231 20C27.3231 20.1111 27.3059 20.2153 27.2714 20.3125C27.2364 20.4097 27.1772 20.5 27.0939 20.5833L24.0939 23.5833C23.9134 23.7639 23.7156 23.8436 23.5006 23.8225C23.285 23.8019 23.1009 23.7153 22.9481 23.5625ZM14.3439 27.5C13.8856 27.5 13.4931 27.3369 13.1664 27.0108C12.8403 26.6842 12.6772 26.2917 12.6772 25.8333V14.1667C12.6772 13.7083 12.8403 13.3158 13.1664 12.9892C13.4931 12.6631 13.8856 12.5 14.3439 12.5H19.3439C19.58 12.5 19.7781 12.5797 19.9381 12.7392C20.0975 12.8992 20.1772 13.0972 20.1772 13.3333C20.1772 13.5694 20.0975 13.7672 19.9381 13.9267C19.7781 14.0867 19.58 14.1667 19.3439 14.1667H14.3439V25.8333H19.3439C19.58 25.8333 19.7781 25.9133 19.9381 26.0733C20.0975 26.2328 20.1772 26.4306 20.1772 26.6667C20.1772 26.9028 20.0975 27.1006 19.9381 27.26C19.7781 27.42 19.58 27.5 19.3439 27.5H14.3439Z" fill="#F43F5E"/>
</svg>
