<svg width="16" height="16" viewBox="0 0 16 16" fill="none" xmlns="http://www.w3.org/2000/svg">
<path d="M10.9478 11.5625C10.7951 11.3819 10.7187 11.1769 10.7187 10.9475C10.7187 10.7186 10.7951 10.5278 10.9478 10.375L12.4895 8.83333H6.51033C6.27422 8.83333 6.07645 8.75333 5.917 8.59333C5.757 8.43389 5.677 8.23611 5.677 8C5.677 7.76389 5.757 7.56583 5.917 7.40583C6.07645 7.24639 6.27422 7.16667 6.51033 7.16667H12.4895L10.9478 5.625C10.7812 5.45833 10.6978 5.26056 10.6978 5.03167C10.6978 4.80222 10.7812 4.60417 10.9478 4.4375C11.1006 4.27083 11.2917 4.1875 11.5212 4.1875C11.7501 4.1875 11.9409 4.26389 12.0937 4.41667L15.0937 7.41667C15.177 7.5 15.2362 7.59028 15.2712 7.6875C15.3056 7.78472 15.3228 7.88889 15.3228 8C15.3228 8.11111 15.3056 8.21528 15.2712 8.3125C15.2362 8.40972 15.177 8.5 15.0937 8.58333L12.0937 11.5833C11.9131 11.7639 11.7153 11.8436 11.5003 11.8225C11.2848 11.8019 11.1006 11.7153 10.9478 11.5625ZM2.34367 15.5C1.88534 15.5 1.49284 15.3369 1.16617 15.0108C0.840057 14.6842 0.677002 14.2917 0.677002 13.8333V2.16667C0.677002 1.70833 0.840057 1.31583 1.16617 0.989167C1.49284 0.663055 1.88534 0.5 2.34367 0.5H7.34367C7.57978 0.5 7.77784 0.579722 7.93784 0.739167C8.09728 0.899167 8.177 1.09722 8.177 1.33333C8.177 1.56944 8.09728 1.76722 7.93784 1.92667C7.77784 2.08667 7.57978 2.16667 7.34367 2.16667H2.34367V13.8333H7.34367C7.57978 13.8333 7.77784 13.9133 7.93784 14.0733C8.09728 14.2328 8.177 14.4306 8.177 14.6667C8.177 14.9028 8.09728 15.1006 7.93784 15.26C7.77784 15.42 7.57978 15.5 7.34367 15.5H2.34367Z" fill="#F43F5E"/>
</svg>
