<svg width="34" height="50" viewBox="0 0 34 50" fill="none" xmlns="http://www.w3.org/2000/svg">
<path d="M12 25.4168L15.077 28.75L22 21.25M10 47.5H24C26.8003 47.5 28.2005 47.5 29.27 46.955C30.2108 46.4757 30.9757 45.7108 31.455 44.77C32 43.7005 32 42.3002 32 39.5V10.5C32 7.69975 32 6.2996 31.455 5.23005C30.9757 4.28923 30.2108 3.52432 29.27 3.04497C28.2005 2.5 26.8003 2.5 24 2.5H10C7.19975 2.5 5.7996 2.5 4.73005 3.04497C3.78923 3.52432 3.02432 4.28923 2.54497 5.23005C2 6.2996 2 7.69972 2 10.5V39.5C2 42.3002 2 43.7005 2.54497 44.77C3.02432 45.7108 3.78923 46.4757 4.73005 46.955C5.7996 47.5 7.19972 47.5 10 47.5Z" stroke="#F43F5E" stroke-width="4" stroke-linecap="round" stroke-linejoin="round"/>
</svg>
