<svg width="48" height="48" viewBox="0 0 48 48" fill="none" xmlns="http://www.w3.org/2000/svg">
<path d="M24 0.5C19.724 0.5 15.7714 1.56002 12.1422 3.68005C8.58486 5.76414 5.76414 8.58486 3.68005 12.1422C1.56002 15.7714 0.5 19.724 0.5 24C0.5 28.276 1.56002 32.2286 3.68005 35.8578C5.76414 39.4151 8.58486 42.2359 12.1422 44.32C15.7714 46.44 19.724 47.5 24 47.5C28.276 47.5 32.2286 46.44 35.8578 44.32C39.4151 42.2359 42.2359 39.4151 44.32 35.8578C46.44 32.2286 47.5 28.285 47.5 24.0269C47.5 19.7689 46.44 15.8073 44.32 12.1422C42.2359 8.58486 39.4151 5.76414 35.8578 3.68005C32.2286 1.56002 28.276 0.5 24 0.5ZM31.1147 13.7592C32.013 13.7592 32.7856 14.3341 33.4323 15.4839C34.0791 16.6338 34.4025 18.0172 34.4025 19.6342C34.4025 21.2511 34.0791 22.6346 33.4323 23.7844C32.7856 24.9343 32.004 25.5092 31.0877 25.5092C30.1714 25.5092 29.3989 24.9343 28.7701 23.7844C28.1412 22.6346 27.8268 21.2511 27.8268 19.6342C27.8268 18.0172 28.1412 16.6338 28.7701 15.4839C29.3989 14.3341 30.1804 13.7592 31.1147 13.7592ZM16.8853 13.7592C17.8196 13.7592 18.6011 14.3341 19.2299 15.4839C19.8588 16.6338 20.1732 18.0172 20.1732 19.6342C20.1732 21.2511 19.8588 22.6346 19.2299 23.7844C18.6011 24.9343 17.8286 25.5092 16.9123 25.5092C15.996 25.5092 15.2234 24.9343 14.5946 23.7844C13.9658 22.6346 13.6514 21.2511 13.6514 19.6342C13.6514 18.0172 13.9658 16.6338 14.5946 15.4839C15.2234 14.3341 15.987 13.7592 16.8853 13.7592ZM38.7145 32.57C38.3911 33.1089 37.6544 33.1628 36.5046 32.7317C35.1391 34.9954 33.3784 36.792 31.2225 38.1216C28.9946 39.487 26.5872 40.1697 24 40.1697C21.4128 40.1697 19.0054 39.487 16.7775 38.1216C14.6216 36.792 12.8609 34.9954 11.4954 32.7317C10.3456 33.1628 9.60895 33.1089 9.28555 32.57C9.06995 32.2106 9.12385 31.7974 9.44725 31.3303C9.77064 30.7913 10.3995 30.2523 11.3337 29.7133C12.268 29.1743 13.0585 28.8689 13.7053 28.797C14.3521 28.7252 14.7653 28.8509 14.945 29.1743C15.0887 29.4258 15.0797 29.7403 14.918 30.1175C14.7563 30.4948 14.4419 30.8811 13.9748 31.2764C15.1246 32.8574 16.5709 34.1151 18.3136 35.0493C20.0564 35.9836 21.9518 36.4507 24 36.4507C26.0482 36.4507 27.9436 35.9836 29.6864 35.0493C31.4291 34.1151 32.8754 32.8574 34.0252 31.2764C33.5581 30.8452 33.2437 30.4499 33.082 30.0906C32.9203 29.7313 32.9113 29.4258 33.055 29.1743C33.2347 28.8509 33.6479 28.7252 34.2947 28.797C34.9415 28.8689 35.732 29.1743 36.6663 29.7133C37.6005 30.2523 38.2294 30.7913 38.5528 31.3303C38.8761 31.7974 38.93 32.2106 38.7145 32.57Z" fill="#F43F5E"/>
</svg>
